<mxfile host="Electron" agent="Mozilla/5.0 (Windows NT 10.0; Win64; x64) AppleWebKit/537.36 (KHTML, like Gecko) draw.io/24.7.8 Chrome/128.0.6613.36 Electron/32.0.1 Safari/537.36" version="24.7.8">
  <diagram name="Page-1" id="esHVvlVv_iYiB9WUsHRS">
    <mxGraphModel dx="4070" dy="2351" grid="1" gridSize="10" guides="1" tooltips="1" connect="1" arrows="1" fold="1" page="1" pageScale="1" pageWidth="827" pageHeight="1169" math="0" shadow="0">
      <root>
        <mxCell id="0" />
        <mxCell id="1" parent="0" />
        <mxCell id="pH9DHJmw3bQD9Se495Sc-9" value="Mux" style="shadow=0;dashed=0;align=center;html=1;strokeWidth=1;shape=mxgraph.electrical.abstract.mux2;whiteSpace=wrap;" parent="1" vertex="1">
          <mxGeometry x="-8" y="875" width="107" height="180" as="geometry" />
        </mxCell>
        <mxCell id="pH9DHJmw3bQD9Se495Sc-11" value="&lt;font style=&quot;font-size: 16px;&quot;&gt;32&#39;d1&lt;/font&gt;" style="text;html=1;align=center;verticalAlign=middle;resizable=0;points=[];autosize=1;strokeColor=none;fillColor=none;" parent="1" vertex="1">
          <mxGeometry x="-58" y="905" width="60" height="30" as="geometry" />
        </mxCell>
        <mxCell id="pH9DHJmw3bQD9Se495Sc-12" value="&lt;font style=&quot;font-size: 16px;&quot;&gt;32&#39;d2&lt;/font&gt;" style="text;html=1;align=center;verticalAlign=middle;resizable=0;points=[];autosize=1;strokeColor=none;fillColor=none;" parent="1" vertex="1">
          <mxGeometry x="-60" y="986" width="60" height="30" as="geometry" />
        </mxCell>
        <mxCell id="pH9DHJmw3bQD9Se495Sc-14" value="" style="verticalLabelPosition=bottom;shadow=0;dashed=0;align=center;html=1;verticalAlign=top;shape=mxgraph.electrical.logic_gates.logic_gate;operation=and;" parent="1" vertex="1">
          <mxGeometry x="-247.5" y="570" width="160" height="110" as="geometry" />
        </mxCell>
        <mxCell id="pH9DHJmw3bQD9Se495Sc-16" value="been_ready" style="text;html=1;align=center;verticalAlign=middle;resizable=0;points=[];autosize=1;strokeColor=none;fillColor=none;" parent="1" vertex="1">
          <mxGeometry x="-328.5" y="583" width="90" height="30" as="geometry" />
        </mxCell>
        <mxCell id="pH9DHJmw3bQD9Se495Sc-17" value="key_down[KEY_CODES_ENTER]" style="text;html=1;align=center;verticalAlign=middle;resizable=0;points=[];autosize=1;strokeColor=none;fillColor=none;" parent="1" vertex="1">
          <mxGeometry x="-441.5" y="637" width="200" height="30" as="geometry" />
        </mxCell>
        <mxCell id="pH9DHJmw3bQD9Se495Sc-18" value="&lt;font color=&quot;#ff3333&quot;&gt;reset&lt;/font&gt;" style="text;html=1;align=center;verticalAlign=middle;resizable=0;points=[];autosize=1;strokeColor=none;fillColor=none;" parent="1" vertex="1">
          <mxGeometry x="-95.49999999999999" y="610" width="50" height="30" as="geometry" />
        </mxCell>
        <mxCell id="pH9DHJmw3bQD9Se495Sc-48" value="" style="group" parent="1" vertex="1" connectable="0">
          <mxGeometry x="1450" y="920" width="320" height="200" as="geometry" />
        </mxCell>
        <mxCell id="nroK3sQqDRNz_VUxStWH-65" style="edgeStyle=orthogonalEdgeStyle;rounded=0;orthogonalLoop=1;jettySize=auto;html=1;exitX=1;exitY=0.5;exitDx=0;exitDy=0;exitPerimeter=0;" parent="pH9DHJmw3bQD9Se495Sc-48" source="pH9DHJmw3bQD9Se495Sc-25" edge="1">
          <mxGeometry relative="1" as="geometry">
            <mxPoint x="370" y="100.3103448275865" as="targetPoint" />
          </mxGeometry>
        </mxCell>
        <mxCell id="pH9DHJmw3bQD9Se495Sc-25" value="&lt;div&gt;&lt;span style=&quot;font-size: 20px;&quot;&gt;toneGen&lt;/span&gt;&lt;/div&gt;&lt;span style=&quot;font-size: 20px;&quot;&gt;(PWM_gen)&lt;/span&gt;" style="rounded=0;whiteSpace=wrap;html=1;points=[[0,0,0,0,0],[0,0.2,0,0,0],[0,0.4,0,0,0],[0,0.6,0,0,0],[0,0.8,0,0,0],[0,1,0,0,0],[0.25,0,0,0,0],[0.25,1,0,0,0],[0.5,0,0,0,0],[0.5,1,0,0,0],[0.75,0,0,0,0],[0.75,1,0,0,0],[1,0,0,0,0],[1,0.5,0,0,0],[1,1,0,0,0]];" parent="pH9DHJmw3bQD9Se495Sc-48" vertex="1">
          <mxGeometry width="320" height="200" as="geometry" />
        </mxCell>
        <mxCell id="pH9DHJmw3bQD9Se495Sc-26" value="&lt;font color=&quot;#999999&quot;&gt;freq&lt;/font&gt;" style="text;html=1;align=left;verticalAlign=middle;resizable=0;points=[];autosize=1;strokeColor=none;fillColor=none;" parent="pH9DHJmw3bQD9Se495Sc-48" vertex="1">
          <mxGeometry x="5" y="25" width="40" height="30" as="geometry" />
        </mxCell>
        <mxCell id="pH9DHJmw3bQD9Se495Sc-27" value="&lt;font color=&quot;#999999&quot;&gt;duty&lt;/font&gt;" style="text;html=1;align=left;verticalAlign=middle;resizable=0;points=[];autosize=1;strokeColor=none;fillColor=none;" parent="pH9DHJmw3bQD9Se495Sc-48" vertex="1">
          <mxGeometry x="5" y="65" width="50" height="30" as="geometry" />
        </mxCell>
        <mxCell id="pH9DHJmw3bQD9Se495Sc-28" value="&lt;font color=&quot;#999999&quot;&gt;reset&lt;/font&gt;" style="text;html=1;align=left;verticalAlign=middle;resizable=0;points=[];autosize=1;strokeColor=none;fillColor=none;" parent="pH9DHJmw3bQD9Se495Sc-48" vertex="1">
          <mxGeometry x="5" y="105" width="50" height="30" as="geometry" />
        </mxCell>
        <mxCell id="pH9DHJmw3bQD9Se495Sc-29" value="" style="triangle;whiteSpace=wrap;html=1;fontColor=#999999;strokeColor=#000000;" parent="pH9DHJmw3bQD9Se495Sc-48" vertex="1">
          <mxGeometry y="150" width="20" height="20" as="geometry" />
        </mxCell>
        <mxCell id="pH9DHJmw3bQD9Se495Sc-30" value="&lt;font color=&quot;#999999&quot;&gt;PWM&lt;/font&gt;" style="text;html=1;align=right;verticalAlign=middle;resizable=0;points=[];autosize=1;strokeColor=none;fillColor=none;" parent="pH9DHJmw3bQD9Se495Sc-48" vertex="1">
          <mxGeometry x="265" y="85" width="50" height="30" as="geometry" />
        </mxCell>
        <mxCell id="pH9DHJmw3bQD9Se495Sc-49" value="" style="group" parent="1" vertex="1" connectable="0">
          <mxGeometry x="240" y="920" width="320" height="200" as="geometry" />
        </mxCell>
        <mxCell id="pH9DHJmw3bQD9Se495Sc-53" style="edgeStyle=orthogonalEdgeStyle;rounded=0;orthogonalLoop=1;jettySize=auto;html=1;exitX=0;exitY=0.4;exitDx=0;exitDy=0;exitPerimeter=0;endArrow=none;endFill=0;startArrow=classic;startFill=1;" parent="pH9DHJmw3bQD9Se495Sc-49" source="pH9DHJmw3bQD9Se495Sc-7" edge="1">
          <mxGeometry relative="1" as="geometry">
            <mxPoint x="-50" y="-100" as="targetPoint" />
            <Array as="points">
              <mxPoint x="-40" y="80" />
              <mxPoint x="-40" y="-100" />
            </Array>
          </mxGeometry>
        </mxCell>
        <mxCell id="nroK3sQqDRNz_VUxStWH-61" style="edgeStyle=orthogonalEdgeStyle;rounded=0;orthogonalLoop=1;jettySize=auto;html=1;exitX=0;exitY=0.6;exitDx=0;exitDy=0;exitPerimeter=0;endArrow=none;endFill=0;startArrow=classic;startFill=1;" parent="pH9DHJmw3bQD9Se495Sc-49" source="pH9DHJmw3bQD9Se495Sc-7" edge="1">
          <mxGeometry relative="1" as="geometry">
            <mxPoint x="-30" y="-90" as="targetPoint" />
          </mxGeometry>
        </mxCell>
        <mxCell id="pH9DHJmw3bQD9Se495Sc-7" value="&lt;div&gt;&lt;span style=&quot;font-size: 20px;&quot;&gt;btSpeedGen&lt;/span&gt;&lt;/div&gt;&lt;span style=&quot;font-size: 20px;&quot;&gt;(PWM_gen)&lt;/span&gt;" style="rounded=0;whiteSpace=wrap;html=1;points=[[0,0,0,0,0],[0,0.2,0,0,0],[0,0.4,0,0,0],[0,0.6,0,0,0],[0,0.8,0,0,0],[0,1,0,0,0],[0.25,0,0,0,0],[0.25,1,0,0,0],[0.5,0,0,0,0],[0.5,1,0,0,0],[0.75,0,0,0,0],[0.75,1,0,0,0],[1,0,0,0,0],[1,0.5,0,0,0],[1,1,0,0,0]];" parent="pH9DHJmw3bQD9Se495Sc-49" vertex="1">
          <mxGeometry width="320" height="200" as="geometry" />
        </mxCell>
        <mxCell id="pH9DHJmw3bQD9Se495Sc-19" value="&lt;font color=&quot;#999999&quot;&gt;freq&lt;/font&gt;" style="text;html=1;align=left;verticalAlign=middle;resizable=0;points=[];autosize=1;strokeColor=none;fillColor=none;" parent="pH9DHJmw3bQD9Se495Sc-49" vertex="1">
          <mxGeometry x="5" y="25" width="40" height="30" as="geometry" />
        </mxCell>
        <mxCell id="pH9DHJmw3bQD9Se495Sc-20" value="&lt;font color=&quot;#999999&quot;&gt;duty&lt;/font&gt;" style="text;html=1;align=left;verticalAlign=middle;resizable=0;points=[];autosize=1;strokeColor=none;fillColor=none;" parent="pH9DHJmw3bQD9Se495Sc-49" vertex="1">
          <mxGeometry x="5" y="65" width="50" height="30" as="geometry" />
        </mxCell>
        <mxCell id="pH9DHJmw3bQD9Se495Sc-21" value="&lt;font color=&quot;#999999&quot;&gt;reset&lt;/font&gt;" style="text;html=1;align=left;verticalAlign=middle;resizable=0;points=[];autosize=1;strokeColor=none;fillColor=none;" parent="pH9DHJmw3bQD9Se495Sc-49" vertex="1">
          <mxGeometry x="5" y="105" width="50" height="30" as="geometry" />
        </mxCell>
        <mxCell id="nroK3sQqDRNz_VUxStWH-56" style="edgeStyle=orthogonalEdgeStyle;rounded=0;orthogonalLoop=1;jettySize=auto;html=1;exitX=0;exitY=0.5;exitDx=0;exitDy=0;startArrow=classic;startFill=1;endArrow=none;endFill=0;" parent="pH9DHJmw3bQD9Se495Sc-49" source="pH9DHJmw3bQD9Se495Sc-23" edge="1">
          <mxGeometry relative="1" as="geometry">
            <mxPoint x="-20" y="-60" as="targetPoint" />
            <Array as="points">
              <mxPoint x="-20" y="160" />
              <mxPoint x="-20" y="-80" />
            </Array>
          </mxGeometry>
        </mxCell>
        <mxCell id="pH9DHJmw3bQD9Se495Sc-23" value="" style="triangle;whiteSpace=wrap;html=1;fontColor=#999999;strokeColor=#000000;" parent="pH9DHJmw3bQD9Se495Sc-49" vertex="1">
          <mxGeometry y="150" width="20" height="20" as="geometry" />
        </mxCell>
        <mxCell id="pH9DHJmw3bQD9Se495Sc-24" value="&lt;font color=&quot;#999999&quot;&gt;PWM&lt;/font&gt;" style="text;html=1;align=right;verticalAlign=middle;resizable=0;points=[];autosize=1;strokeColor=none;fillColor=none;" parent="pH9DHJmw3bQD9Se495Sc-49" vertex="1">
          <mxGeometry x="265" y="85" width="50" height="30" as="geometry" />
        </mxCell>
        <mxCell id="pH9DHJmw3bQD9Se495Sc-50" value="" style="group" parent="1" vertex="1" connectable="0">
          <mxGeometry x="658" y="860" width="320" height="200" as="geometry" />
        </mxCell>
        <mxCell id="nroK3sQqDRNz_VUxStWH-64" style="edgeStyle=orthogonalEdgeStyle;rounded=0;orthogonalLoop=1;jettySize=auto;html=1;exitX=0;exitY=0.25;exitDx=0;exitDy=0;endArrow=none;endFill=0;startArrow=classic;startFill=1;" parent="pH9DHJmw3bQD9Se495Sc-50" source="pH9DHJmw3bQD9Se495Sc-6" edge="1">
          <mxGeometry relative="1" as="geometry">
            <mxPoint x="-38" y="-30" as="targetPoint" />
          </mxGeometry>
        </mxCell>
        <mxCell id="pH9DHJmw3bQD9Se495Sc-6" value="&lt;div&gt;&lt;span style=&quot;font-size: 20px;&quot;&gt;playerCtrl_00&lt;/span&gt;&lt;/div&gt;&lt;span style=&quot;font-size: 20px;&quot;&gt;(PlayerCtrl)&lt;/span&gt;" style="rounded=0;whiteSpace=wrap;html=1;" parent="pH9DHJmw3bQD9Se495Sc-50" vertex="1">
          <mxGeometry width="320" height="200" as="geometry" />
        </mxCell>
        <mxCell id="pH9DHJmw3bQD9Se495Sc-33" value="&lt;font color=&quot;#999999&quot;&gt;ibeat&lt;/font&gt;" style="text;html=1;align=right;verticalAlign=middle;resizable=0;points=[];autosize=1;strokeColor=none;fillColor=none;" parent="pH9DHJmw3bQD9Se495Sc-50" vertex="1">
          <mxGeometry x="264" y="85" width="50" height="30" as="geometry" />
        </mxCell>
        <mxCell id="pH9DHJmw3bQD9Se495Sc-34" value="&lt;font color=&quot;#999999&quot;&gt;reset&lt;/font&gt;" style="text;html=1;align=left;verticalAlign=middle;resizable=0;points=[];autosize=1;strokeColor=none;fillColor=none;" parent="pH9DHJmw3bQD9Se495Sc-50" vertex="1">
          <mxGeometry x="5" y="35" width="50" height="30" as="geometry" />
        </mxCell>
        <mxCell id="pH9DHJmw3bQD9Se495Sc-35" value="&lt;font color=&quot;#999999&quot;&gt;sel&lt;/font&gt;" style="text;html=1;align=left;verticalAlign=middle;resizable=0;points=[];autosize=1;strokeColor=none;fillColor=none;" parent="pH9DHJmw3bQD9Se495Sc-50" vertex="1">
          <mxGeometry x="5" y="85" width="40" height="30" as="geometry" />
        </mxCell>
        <mxCell id="pH9DHJmw3bQD9Se495Sc-37" value="" style="triangle;whiteSpace=wrap;html=1;fontColor=#999999;strokeColor=#000000;" parent="pH9DHJmw3bQD9Se495Sc-50" vertex="1">
          <mxGeometry y="150" width="20" height="20" as="geometry" />
        </mxCell>
        <mxCell id="pH9DHJmw3bQD9Se495Sc-51" value="" style="group" parent="1" vertex="1" connectable="0">
          <mxGeometry x="1040" y="860" width="320" height="200" as="geometry" />
        </mxCell>
        <mxCell id="pH9DHJmw3bQD9Se495Sc-5" value="&lt;font style=&quot;font-size: 20px;&quot;&gt;music00&lt;br&gt;(Music)&lt;/font&gt;" style="rounded=0;whiteSpace=wrap;html=1;" parent="pH9DHJmw3bQD9Se495Sc-51" vertex="1">
          <mxGeometry x="50" width="270" height="200" as="geometry" />
        </mxCell>
        <mxCell id="pH9DHJmw3bQD9Se495Sc-31" value="ibeatNum" style="text;html=1;align=left;verticalAlign=middle;resizable=0;points=[];autosize=1;strokeColor=none;fillColor=none;fontColor=#999999;" parent="pH9DHJmw3bQD9Se495Sc-51" vertex="1">
          <mxGeometry x="55" y="85" width="70" height="30" as="geometry" />
        </mxCell>
        <mxCell id="pH9DHJmw3bQD9Se495Sc-32" value="tone" style="text;html=1;align=right;verticalAlign=middle;resizable=0;points=[];autosize=1;strokeColor=none;fillColor=none;fontColor=#999999;" parent="pH9DHJmw3bQD9Se495Sc-51" vertex="1">
          <mxGeometry x="264" y="85" width="50" height="30" as="geometry" />
        </mxCell>
        <mxCell id="pH9DHJmw3bQD9Se495Sc-52" value="" style="group" parent="1" vertex="1" connectable="0">
          <mxGeometry x="-326" y="1380" width="320" height="200" as="geometry" />
        </mxCell>
        <mxCell id="nroK3sQqDRNz_VUxStWH-67" style="edgeStyle=orthogonalEdgeStyle;rounded=0;orthogonalLoop=1;jettySize=auto;html=1;exitX=0;exitY=0.2;exitDx=0;exitDy=0;exitPerimeter=0;startArrow=classic;startFill=1;endArrow=none;endFill=0;" parent="pH9DHJmw3bQD9Se495Sc-52" source="pH9DHJmw3bQD9Se495Sc-1" edge="1">
          <mxGeometry relative="1" as="geometry">
            <mxPoint x="-80" y="40.31034482758628" as="targetPoint" />
          </mxGeometry>
        </mxCell>
        <mxCell id="nroK3sQqDRNz_VUxStWH-68" style="edgeStyle=orthogonalEdgeStyle;rounded=0;orthogonalLoop=1;jettySize=auto;html=1;exitX=0;exitY=0.4;exitDx=0;exitDy=0;exitPerimeter=0;endArrow=none;endFill=0;startArrow=classic;startFill=1;" parent="pH9DHJmw3bQD9Se495Sc-52" source="pH9DHJmw3bQD9Se495Sc-1" edge="1">
          <mxGeometry relative="1" as="geometry">
            <mxPoint x="-80" y="80.31034482758605" as="targetPoint" />
          </mxGeometry>
        </mxCell>
        <mxCell id="nroK3sQqDRNz_VUxStWH-69" style="edgeStyle=orthogonalEdgeStyle;rounded=0;orthogonalLoop=1;jettySize=auto;html=1;exitX=0;exitY=0.6;exitDx=0;exitDy=0;exitPerimeter=0;endArrow=none;endFill=0;startArrow=classic;startFill=1;" parent="pH9DHJmw3bQD9Se495Sc-52" source="pH9DHJmw3bQD9Se495Sc-1" edge="1">
          <mxGeometry relative="1" as="geometry">
            <mxPoint x="-40" y="120.31034482758605" as="targetPoint" />
          </mxGeometry>
        </mxCell>
        <mxCell id="nroK3sQqDRNz_VUxStWH-89" style="edgeStyle=orthogonalEdgeStyle;rounded=0;orthogonalLoop=1;jettySize=auto;html=1;exitX=1;exitY=0.17;exitDx=0;exitDy=0;exitPerimeter=0;" parent="pH9DHJmw3bQD9Se495Sc-52" source="pH9DHJmw3bQD9Se495Sc-1" edge="1">
          <mxGeometry relative="1" as="geometry">
            <mxPoint x="360" y="34.10344827586209" as="targetPoint" />
          </mxGeometry>
        </mxCell>
        <mxCell id="nroK3sQqDRNz_VUxStWH-90" style="edgeStyle=orthogonalEdgeStyle;rounded=0;orthogonalLoop=1;jettySize=auto;html=1;exitX=1;exitY=0.33;exitDx=0;exitDy=0;exitPerimeter=0;" parent="pH9DHJmw3bQD9Se495Sc-52" source="pH9DHJmw3bQD9Se495Sc-1" edge="1">
          <mxGeometry relative="1" as="geometry">
            <mxPoint x="360" y="65.82758620689651" as="targetPoint" />
          </mxGeometry>
        </mxCell>
        <mxCell id="nroK3sQqDRNz_VUxStWH-91" style="edgeStyle=orthogonalEdgeStyle;rounded=0;orthogonalLoop=1;jettySize=auto;html=1;exitX=1;exitY=0.67;exitDx=0;exitDy=0;exitPerimeter=0;" parent="pH9DHJmw3bQD9Se495Sc-52" source="pH9DHJmw3bQD9Se495Sc-1" edge="1">
          <mxGeometry relative="1" as="geometry">
            <mxPoint x="360" y="134.10344827586232" as="targetPoint" />
          </mxGeometry>
        </mxCell>
        <mxCell id="pH9DHJmw3bQD9Se495Sc-1" value="&lt;font style=&quot;font-size: 20px;&quot;&gt;key_de&lt;br&gt;(KeyboardDecoder)&lt;/font&gt;" style="rounded=0;whiteSpace=wrap;html=1;points=[[0,0,0,0,0],[0,0.2,0,0,0],[0,0.4,0,0,0],[0,0.6,0,0,0],[0,0.8,0,0,0],[0,1,0,0,0],[0.25,0,0,0,0],[0.25,1,0,0,0],[0.5,0,0,0,0],[0.5,1,0,0,0],[0.75,0,0,0,0],[0.75,1,0,0,0],[1,0,0,0,0],[1,0.17,0,0,0],[1,0.33,0,0,0],[1,0.5,0,0,0],[1,0.67,0,0,0],[1,0.83,0,0,0],[1,1,0,0,0]];" parent="pH9DHJmw3bQD9Se495Sc-52" vertex="1">
          <mxGeometry width="320" height="200" as="geometry" />
        </mxCell>
        <mxCell id="pH9DHJmw3bQD9Se495Sc-39" value="&lt;font color=&quot;#999999&quot;&gt;PS2_DATA&lt;/font&gt;" style="text;html=1;align=left;verticalAlign=middle;resizable=0;points=[];autosize=1;strokeColor=none;fillColor=none;" parent="pH9DHJmw3bQD9Se495Sc-52" vertex="1">
          <mxGeometry x="5" y="25" width="80" height="30" as="geometry" />
        </mxCell>
        <mxCell id="pH9DHJmw3bQD9Se495Sc-40" value="&lt;font color=&quot;#999999&quot;&gt;PS2_CLK&lt;/font&gt;" style="text;html=1;align=left;verticalAlign=middle;resizable=0;points=[];autosize=1;strokeColor=none;fillColor=none;" parent="pH9DHJmw3bQD9Se495Sc-52" vertex="1">
          <mxGeometry x="5" y="65" width="80" height="30" as="geometry" />
        </mxCell>
        <mxCell id="pH9DHJmw3bQD9Se495Sc-41" value="&lt;font style=&quot;font-size: 12px;&quot; color=&quot;#999999&quot;&gt;rst&lt;/font&gt;" style="text;html=1;align=left;verticalAlign=middle;resizable=0;points=[];autosize=1;strokeColor=none;fillColor=none;fontSize=12;" parent="pH9DHJmw3bQD9Se495Sc-52" vertex="1">
          <mxGeometry x="5" y="105" width="40" height="30" as="geometry" />
        </mxCell>
        <mxCell id="nroK3sQqDRNz_VUxStWH-70" style="edgeStyle=orthogonalEdgeStyle;rounded=0;orthogonalLoop=1;jettySize=auto;html=1;exitX=0;exitY=0.5;exitDx=0;exitDy=0;endArrow=none;endFill=0;startArrow=classic;startFill=1;" parent="pH9DHJmw3bQD9Se495Sc-52" source="pH9DHJmw3bQD9Se495Sc-42" edge="1">
          <mxGeometry relative="1" as="geometry">
            <mxPoint x="-163" y="-540" as="targetPoint" />
          </mxGeometry>
        </mxCell>
        <mxCell id="pH9DHJmw3bQD9Se495Sc-42" value="" style="triangle;whiteSpace=wrap;html=1;fontColor=#999999;strokeColor=#000000;" parent="pH9DHJmw3bQD9Se495Sc-52" vertex="1">
          <mxGeometry y="150" width="20" height="20" as="geometry" />
        </mxCell>
        <mxCell id="pH9DHJmw3bQD9Se495Sc-43" value="&lt;font color=&quot;#999999&quot;&gt;PS2_DATA&lt;/font&gt;" style="text;html=1;align=right;verticalAlign=middle;resizable=0;points=[];autosize=1;strokeColor=none;fillColor=none;" parent="pH9DHJmw3bQD9Se495Sc-52" vertex="1">
          <mxGeometry x="235" y="20" width="80" height="30" as="geometry" />
        </mxCell>
        <mxCell id="pH9DHJmw3bQD9Se495Sc-44" value="&lt;font color=&quot;#999999&quot;&gt;PS2_CLK&lt;/font&gt;" style="text;html=1;align=right;verticalAlign=middle;resizable=0;points=[];autosize=1;strokeColor=none;fillColor=none;" parent="pH9DHJmw3bQD9Se495Sc-52" vertex="1">
          <mxGeometry x="235" y="51" width="80" height="30" as="geometry" />
        </mxCell>
        <mxCell id="pH9DHJmw3bQD9Se495Sc-45" value="&lt;font color=&quot;#999999&quot;&gt;key_down&lt;/font&gt;" style="text;html=1;align=right;verticalAlign=middle;resizable=0;points=[];autosize=1;strokeColor=none;fillColor=none;" parent="pH9DHJmw3bQD9Se495Sc-52" vertex="1">
          <mxGeometry x="235" y="85" width="80" height="30" as="geometry" />
        </mxCell>
        <mxCell id="pH9DHJmw3bQD9Se495Sc-46" value="&lt;font color=&quot;#999999&quot;&gt;last_change&lt;/font&gt;" style="text;html=1;align=right;verticalAlign=middle;resizable=0;points=[];autosize=1;strokeColor=none;fillColor=none;" parent="pH9DHJmw3bQD9Se495Sc-52" vertex="1">
          <mxGeometry x="225" y="119" width="90" height="30" as="geometry" />
        </mxCell>
        <mxCell id="pH9DHJmw3bQD9Se495Sc-47" value="&lt;font color=&quot;#999999&quot;&gt;key_valid&lt;/font&gt;" style="text;html=1;align=right;verticalAlign=middle;resizable=0;points=[];autosize=1;strokeColor=none;fillColor=none;" parent="pH9DHJmw3bQD9Se495Sc-52" vertex="1">
          <mxGeometry x="245" y="148" width="70" height="30" as="geometry" />
        </mxCell>
        <mxCell id="pH9DHJmw3bQD9Se495Sc-55" style="edgeStyle=orthogonalEdgeStyle;rounded=0;orthogonalLoop=1;jettySize=auto;html=1;exitX=1;exitY=0.5;exitDx=0;exitDy=-5;exitPerimeter=0;entryX=0;entryY=0.2;entryDx=0;entryDy=0;entryPerimeter=0;" parent="1" source="pH9DHJmw3bQD9Se495Sc-9" target="pH9DHJmw3bQD9Se495Sc-7" edge="1">
          <mxGeometry relative="1" as="geometry" />
        </mxCell>
        <mxCell id="nroK3sQqDRNz_VUxStWH-38" value="&lt;font style=&quot;font-size: 12px;&quot;&gt;BEAT_FREQ&lt;/font&gt;" style="edgeLabel;html=1;align=center;verticalAlign=middle;resizable=0;points=[];" parent="pH9DHJmw3bQD9Se495Sc-55" vertex="1" connectable="0">
          <mxGeometry x="-0.2931" y="3" relative="1" as="geometry">
            <mxPoint x="-4" y="3" as="offset" />
          </mxGeometry>
        </mxCell>
        <mxCell id="pH9DHJmw3bQD9Se495Sc-63" style="edgeStyle=orthogonalEdgeStyle;rounded=0;orthogonalLoop=1;jettySize=auto;html=1;exitX=1;exitY=0.5;exitDx=0;exitDy=-5;exitPerimeter=0;endArrow=none;endFill=0;" parent="1" source="pH9DHJmw3bQD9Se495Sc-60" edge="1">
          <mxGeometry relative="1" as="geometry">
            <mxPoint x="72.99999999999977" y="1787.1538461538462" as="targetPoint" />
          </mxGeometry>
        </mxCell>
        <mxCell id="pH9DHJmw3bQD9Se495Sc-64" style="edgeStyle=orthogonalEdgeStyle;rounded=0;orthogonalLoop=1;jettySize=auto;html=1;endArrow=none;endFill=0;exitX=0;exitY=0.5;exitDx=0;exitDy=0;exitPerimeter=0;" parent="1" source="nroK3sQqDRNz_VUxStWH-6" edge="1">
          <mxGeometry relative="1" as="geometry">
            <mxPoint x="60.61538461538453" y="1787.9230769230767" as="targetPoint" />
            <mxPoint x="-347" y="1742" as="sourcePoint" />
            <Array as="points">
              <mxPoint x="-367" y="1828" />
              <mxPoint x="-367" y="1682" />
              <mxPoint x="61" y="1682" />
            </Array>
          </mxGeometry>
        </mxCell>
        <mxCell id="nroK3sQqDRNz_VUxStWH-36" style="edgeStyle=orthogonalEdgeStyle;rounded=0;orthogonalLoop=1;jettySize=auto;html=1;exitX=0;exitY=0.22777777777777777;exitDx=0;exitDy=3;exitPerimeter=0;endArrow=none;endFill=0;" parent="1" source="pH9DHJmw3bQD9Se495Sc-60" edge="1">
          <mxGeometry relative="1" as="geometry">
            <mxPoint x="-67.33333333333303" y="1682" as="targetPoint" />
            <Array as="points">
              <mxPoint x="-67" y="1712" />
              <mxPoint x="-67" y="1712" />
            </Array>
          </mxGeometry>
        </mxCell>
        <mxCell id="pH9DHJmw3bQD9Se495Sc-60" value="Mux" style="shadow=0;dashed=0;align=center;html=1;strokeWidth=1;shape=mxgraph.electrical.abstract.mux2;whiteSpace=wrap;" parent="1" vertex="1">
          <mxGeometry x="-67" y="1702" width="107" height="180" as="geometry" />
        </mxCell>
        <mxCell id="pH9DHJmw3bQD9Se495Sc-61" value="been_ready" style="text;html=1;align=center;verticalAlign=middle;resizable=0;points=[];autosize=1;strokeColor=none;fillColor=none;" parent="1" vertex="1">
          <mxGeometry x="-57" y="1882" width="90" height="30" as="geometry" />
        </mxCell>
        <mxCell id="pH9DHJmw3bQD9Se495Sc-65" value="Mux" style="shadow=0;dashed=0;align=center;html=1;strokeWidth=1;shape=mxgraph.electrical.abstract.mux2;whiteSpace=wrap;" parent="1" vertex="1">
          <mxGeometry x="-173" y="1743" width="107" height="180" as="geometry" />
        </mxCell>
        <mxCell id="pH9DHJmw3bQD9Se495Sc-66" value="key_down[KEY_CODES_ENTER]" style="text;html=1;align=center;verticalAlign=middle;resizable=0;points=[];autosize=1;strokeColor=none;fillColor=none;" parent="1" vertex="1">
          <mxGeometry x="-219.5" y="1923" width="200" height="30" as="geometry" />
        </mxCell>
        <mxCell id="nroK3sQqDRNz_VUxStWH-8" style="edgeStyle=orthogonalEdgeStyle;rounded=0;orthogonalLoop=1;jettySize=auto;html=1;exitX=0;exitY=0.22777777777777777;exitDx=0;exitDy=3;exitPerimeter=0;endArrow=none;endFill=0;" parent="1" source="pH9DHJmw3bQD9Se495Sc-67" edge="1">
          <mxGeometry relative="1" as="geometry">
            <mxPoint x="-367" y="1745.7586206896553" as="targetPoint" />
          </mxGeometry>
        </mxCell>
        <mxCell id="pH9DHJmw3bQD9Se495Sc-67" value="Mux" style="shadow=0;dashed=0;align=center;html=1;strokeWidth=1;shape=mxgraph.electrical.abstract.mux2;whiteSpace=wrap;" parent="1" vertex="1">
          <mxGeometry x="-327" y="1702" width="107" height="180" as="geometry" />
        </mxCell>
        <mxCell id="pH9DHJmw3bQD9Se495Sc-69" style="edgeStyle=orthogonalEdgeStyle;rounded=0;orthogonalLoop=1;jettySize=auto;html=1;exitX=1;exitY=0.5;exitDx=0;exitDy=-5;exitPerimeter=0;entryX=0;entryY=0.22777777777777777;entryDx=0;entryDy=3;entryPerimeter=0;endArrow=none;endFill=0;" parent="1" source="pH9DHJmw3bQD9Se495Sc-67" target="pH9DHJmw3bQD9Se495Sc-65" edge="1">
          <mxGeometry relative="1" as="geometry" />
        </mxCell>
        <mxCell id="pH9DHJmw3bQD9Se495Sc-70" value="key_down[KEY_CODES_R]" style="text;html=1;align=center;verticalAlign=middle;resizable=0;points=[];autosize=1;strokeColor=none;fillColor=none;" parent="1" vertex="1">
          <mxGeometry x="-358.5" y="1881" width="170" height="30" as="geometry" />
        </mxCell>
        <mxCell id="nroK3sQqDRNz_VUxStWH-5" value="1&#39;b0" style="text;html=1;align=center;verticalAlign=middle;resizable=0;points=[];autosize=1;strokeColor=none;fillColor=none;" parent="1" vertex="1">
          <mxGeometry x="-212" y="1854" width="50" height="30" as="geometry" />
        </mxCell>
        <mxCell id="nroK3sQqDRNz_VUxStWH-6" value="" style="verticalLabelPosition=bottom;shadow=0;dashed=0;align=center;html=1;verticalAlign=top;shape=mxgraph.electrical.logic_gates.inverter_2" parent="1" vertex="1">
          <mxGeometry x="-357" y="1818" width="30" height="20" as="geometry" />
        </mxCell>
        <mxCell id="nroK3sQqDRNz_VUxStWH-9" value="tag" style="text;html=1;align=center;verticalAlign=middle;resizable=0;points=[];autosize=1;strokeColor=none;fillColor=none;" parent="1" vertex="1">
          <mxGeometry x="63" y="1772" width="40" height="30" as="geometry" />
        </mxCell>
        <mxCell id="nroK3sQqDRNz_VUxStWH-10" value="" style="ellipse;whiteSpace=wrap;html=1;aspect=fixed;fillColor=#000000;" parent="1" vertex="1">
          <mxGeometry x="59" y="1785" width="4" height="4" as="geometry" />
        </mxCell>
        <mxCell id="nroK3sQqDRNz_VUxStWH-11" value="" style="ellipse;whiteSpace=wrap;html=1;aspect=fixed;fillColor=#000000;" parent="1" vertex="1">
          <mxGeometry x="-369" y="1744" width="4" height="4" as="geometry" />
        </mxCell>
        <mxCell id="nroK3sQqDRNz_VUxStWH-15" style="edgeStyle=orthogonalEdgeStyle;rounded=0;orthogonalLoop=1;jettySize=auto;html=1;exitX=1;exitY=0.5;exitDx=0;exitDy=-5;exitPerimeter=0;endArrow=none;endFill=0;" parent="1" source="nroK3sQqDRNz_VUxStWH-13" edge="1">
          <mxGeometry relative="1" as="geometry">
            <mxPoint x="93" y="2186.8333333333335" as="targetPoint" />
          </mxGeometry>
        </mxCell>
        <mxCell id="nroK3sQqDRNz_VUxStWH-27" style="edgeStyle=orthogonalEdgeStyle;rounded=0;orthogonalLoop=1;jettySize=auto;html=1;exitX=0;exitY=0.22777777777777777;exitDx=0;exitDy=3;exitPerimeter=0;endArrow=none;endFill=0;" parent="1" source="nroK3sQqDRNz_VUxStWH-13" edge="1">
          <mxGeometry relative="1" as="geometry">
            <mxPoint x="-67" y="2042" as="targetPoint" />
            <Array as="points">
              <mxPoint x="-67" y="2146" />
            </Array>
          </mxGeometry>
        </mxCell>
        <mxCell id="nroK3sQqDRNz_VUxStWH-13" value="Mux" style="shadow=0;dashed=0;align=center;html=1;strokeWidth=1;shape=mxgraph.electrical.abstract.mux2;whiteSpace=wrap;" parent="1" vertex="1">
          <mxGeometry x="-65.5" y="2102" width="107" height="180" as="geometry" />
        </mxCell>
        <mxCell id="nroK3sQqDRNz_VUxStWH-14" value="been_ready" style="text;html=1;align=center;verticalAlign=middle;resizable=0;points=[];autosize=1;strokeColor=none;fillColor=none;" parent="1" vertex="1">
          <mxGeometry x="-55.5" y="2282" width="90" height="30" as="geometry" />
        </mxCell>
        <mxCell id="nroK3sQqDRNz_VUxStWH-17" value="Mux" style="shadow=0;dashed=0;align=center;html=1;strokeWidth=1;shape=mxgraph.electrical.abstract.mux2;whiteSpace=wrap;" parent="1" vertex="1">
          <mxGeometry x="-199" y="2143" width="107" height="180" as="geometry" />
        </mxCell>
        <mxCell id="nroK3sQqDRNz_VUxStWH-18" style="edgeStyle=orthogonalEdgeStyle;rounded=0;orthogonalLoop=1;jettySize=auto;html=1;exitX=1;exitY=0.5;exitDx=0;exitDy=-5;exitPerimeter=0;entryX=0;entryY=0.6833333333333333;entryDx=0;entryDy=3;entryPerimeter=0;endArrow=none;endFill=0;" parent="1" source="nroK3sQqDRNz_VUxStWH-17" target="nroK3sQqDRNz_VUxStWH-13" edge="1">
          <mxGeometry relative="1" as="geometry" />
        </mxCell>
        <mxCell id="nroK3sQqDRNz_VUxStWH-19" value="key_down[KEY_CODES_ENTER]" style="text;html=1;align=center;verticalAlign=middle;resizable=0;points=[];autosize=1;strokeColor=none;fillColor=none;" parent="1" vertex="1">
          <mxGeometry x="-245.5" y="2323" width="200" height="30" as="geometry" />
        </mxCell>
        <mxCell id="nroK3sQqDRNz_VUxStWH-20" value="Mux" style="shadow=0;dashed=0;align=center;html=1;strokeWidth=1;shape=mxgraph.electrical.abstract.mux2;whiteSpace=wrap;" parent="1" vertex="1">
          <mxGeometry x="-333" y="2102" width="107" height="180" as="geometry" />
        </mxCell>
        <mxCell id="nroK3sQqDRNz_VUxStWH-21" style="edgeStyle=orthogonalEdgeStyle;rounded=0;orthogonalLoop=1;jettySize=auto;html=1;exitX=1;exitY=0.5;exitDx=0;exitDy=-5;exitPerimeter=0;entryX=0;entryY=0.22777777777777777;entryDx=0;entryDy=3;entryPerimeter=0;endArrow=none;endFill=0;" parent="1" source="nroK3sQqDRNz_VUxStWH-20" edge="1">
          <mxGeometry relative="1" as="geometry">
            <mxPoint x="-187" y="2187" as="targetPoint" />
          </mxGeometry>
        </mxCell>
        <mxCell id="nroK3sQqDRNz_VUxStWH-22" value="key_down[KEY_CODES_W]" style="text;html=1;align=center;verticalAlign=middle;resizable=0;points=[];autosize=1;strokeColor=none;fillColor=none;" parent="1" vertex="1">
          <mxGeometry x="-369.5" y="2282" width="180" height="30" as="geometry" />
        </mxCell>
        <mxCell id="nroK3sQqDRNz_VUxStWH-23" value="Mux" style="shadow=0;dashed=0;align=center;html=1;strokeWidth=1;shape=mxgraph.electrical.abstract.mux2;whiteSpace=wrap;" parent="1" vertex="1">
          <mxGeometry x="-465.5" y="2061" width="107" height="180" as="geometry" />
        </mxCell>
        <mxCell id="nroK3sQqDRNz_VUxStWH-24" value="key_down[KEY_CODES_S]" style="text;html=1;align=center;verticalAlign=middle;resizable=0;points=[];autosize=1;strokeColor=none;fillColor=none;" parent="1" vertex="1">
          <mxGeometry x="-497" y="2241" width="170" height="30" as="geometry" />
        </mxCell>
        <mxCell id="nroK3sQqDRNz_VUxStWH-25" style="edgeStyle=orthogonalEdgeStyle;rounded=0;orthogonalLoop=1;jettySize=auto;html=1;exitX=1;exitY=0.5;exitDx=0;exitDy=-5;exitPerimeter=0;entryX=0;entryY=0.22777777777777777;entryDx=0;entryDy=3;entryPerimeter=0;endArrow=none;endFill=0;" parent="1" source="nroK3sQqDRNz_VUxStWH-23" target="nroK3sQqDRNz_VUxStWH-20" edge="1">
          <mxGeometry relative="1" as="geometry" />
        </mxCell>
        <mxCell id="nroK3sQqDRNz_VUxStWH-26" style="edgeStyle=orthogonalEdgeStyle;rounded=0;orthogonalLoop=1;jettySize=auto;html=1;exitX=1;exitY=0.5;exitDx=0;exitDy=-5;exitPerimeter=0;entryX=0;entryY=0.22777777777777777;entryDx=0;entryDy=3;entryPerimeter=0;endArrow=none;endFill=0;" parent="1" source="nroK3sQqDRNz_VUxStWH-13" target="nroK3sQqDRNz_VUxStWH-23" edge="1">
          <mxGeometry relative="1" as="geometry">
            <Array as="points">
              <mxPoint x="63" y="2187" />
              <mxPoint x="63" y="2042" />
              <mxPoint x="-467" y="2042" />
              <mxPoint x="-467" y="2105" />
            </Array>
          </mxGeometry>
        </mxCell>
        <mxCell id="nroK3sQqDRNz_VUxStWH-29" value="1&#39;b1" style="text;html=1;align=center;verticalAlign=middle;resizable=0;points=[];autosize=1;strokeColor=none;fillColor=none;" parent="1" vertex="1">
          <mxGeometry x="-504" y="2173" width="50" height="30" as="geometry" />
        </mxCell>
        <mxCell id="nroK3sQqDRNz_VUxStWH-30" value="1&#39;b0" style="text;html=1;align=center;verticalAlign=middle;resizable=0;points=[];autosize=1;strokeColor=none;fillColor=none;" parent="1" vertex="1">
          <mxGeometry x="-371" y="2214" width="50" height="30" as="geometry" />
        </mxCell>
        <mxCell id="nroK3sQqDRNz_VUxStWH-31" value="1&#39;b0" style="text;html=1;align=center;verticalAlign=middle;resizable=0;points=[];autosize=1;strokeColor=none;fillColor=none;" parent="1" vertex="1">
          <mxGeometry x="-237" y="2255" width="50" height="30" as="geometry" />
        </mxCell>
        <mxCell id="nroK3sQqDRNz_VUxStWH-32" value="sel" style="text;html=1;align=center;verticalAlign=middle;resizable=0;points=[];autosize=1;strokeColor=none;fillColor=none;" parent="1" vertex="1">
          <mxGeometry x="83" y="2173" width="40" height="30" as="geometry" />
        </mxCell>
        <mxCell id="nroK3sQqDRNz_VUxStWH-33" value="" style="ellipse;whiteSpace=wrap;html=1;aspect=fixed;fillColor=#000000;" parent="1" vertex="1">
          <mxGeometry x="61" y="2185" width="4" height="4" as="geometry" />
        </mxCell>
        <mxCell id="nroK3sQqDRNz_VUxStWH-34" value="" style="ellipse;whiteSpace=wrap;html=1;aspect=fixed;fillColor=#000000;" parent="1" vertex="1">
          <mxGeometry x="-69" y="2040" width="4" height="4" as="geometry" />
        </mxCell>
        <mxCell id="nroK3sQqDRNz_VUxStWH-37" value="" style="ellipse;whiteSpace=wrap;html=1;aspect=fixed;fillColor=#000000;" parent="1" vertex="1">
          <mxGeometry x="-69" y="1680" width="4" height="4" as="geometry" />
        </mxCell>
        <mxCell id="nroK3sQqDRNz_VUxStWH-39" style="edgeStyle=orthogonalEdgeStyle;rounded=0;orthogonalLoop=1;jettySize=auto;html=1;exitX=1;exitY=0.5;exitDx=0;exitDy=0;exitPerimeter=0;entryX=0;entryY=0.5;entryDx=0;entryDy=0;" parent="1" source="pH9DHJmw3bQD9Se495Sc-7" target="pH9DHJmw3bQD9Se495Sc-37" edge="1">
          <mxGeometry relative="1" as="geometry" />
        </mxCell>
        <mxCell id="nroK3sQqDRNz_VUxStWH-48" value="&lt;font style=&quot;font-size: 12px;&quot;&gt;beatFreq&lt;/font&gt;" style="edgeLabel;html=1;align=center;verticalAlign=middle;resizable=0;points=[];" parent="nroK3sQqDRNz_VUxStWH-39" vertex="1" connectable="0">
          <mxGeometry x="-0.2449" y="2" relative="1" as="geometry">
            <mxPoint x="-8" y="1" as="offset" />
          </mxGeometry>
        </mxCell>
        <mxCell id="nroK3sQqDRNz_VUxStWH-46" style="edgeStyle=orthogonalEdgeStyle;rounded=0;orthogonalLoop=1;jettySize=auto;html=1;exitX=1;exitY=0.5;exitDx=0;exitDy=0;entryX=0;entryY=0.5;entryDx=0;entryDy=0;" parent="1" source="pH9DHJmw3bQD9Se495Sc-6" target="pH9DHJmw3bQD9Se495Sc-5" edge="1">
          <mxGeometry relative="1" as="geometry" />
        </mxCell>
        <mxCell id="nroK3sQqDRNz_VUxStWH-47" value="&lt;font style=&quot;font-size: 12px;&quot;&gt;ibeatNum&lt;br&gt;&lt;/font&gt;" style="edgeLabel;html=1;align=center;verticalAlign=middle;resizable=0;points=[];" parent="nroK3sQqDRNz_VUxStWH-46" vertex="1" connectable="0">
          <mxGeometry x="-0.1127" y="1" relative="1" as="geometry">
            <mxPoint x="-9" y="1" as="offset" />
          </mxGeometry>
        </mxCell>
        <mxCell id="nroK3sQqDRNz_VUxStWH-51" style="edgeStyle=orthogonalEdgeStyle;rounded=0;orthogonalLoop=1;jettySize=auto;html=1;exitX=1;exitY=0.5;exitDx=0;exitDy=0;entryX=0;entryY=0.2;entryDx=0;entryDy=0;entryPerimeter=0;" parent="1" source="pH9DHJmw3bQD9Se495Sc-5" target="pH9DHJmw3bQD9Se495Sc-25" edge="1">
          <mxGeometry relative="1" as="geometry" />
        </mxCell>
        <mxCell id="nroK3sQqDRNz_VUxStWH-53" value="tone" style="edgeLabel;html=1;align=center;verticalAlign=middle;resizable=0;points=[];" parent="nroK3sQqDRNz_VUxStWH-51" vertex="1" connectable="0">
          <mxGeometry y="1" relative="1" as="geometry">
            <mxPoint x="10" as="offset" />
          </mxGeometry>
        </mxCell>
        <mxCell id="nroK3sQqDRNz_VUxStWH-54" value="" style="endArrow=classic;html=1;rounded=0;entryX=0;entryY=0.5;entryDx=0;entryDy=0;edgeStyle=orthogonalEdgeStyle;endFill=1;exitX=0.944;exitY=0.504;exitDx=0;exitDy=0;exitPerimeter=0;" parent="1" source="nroK3sQqDRNz_VUxStWH-60" target="pH9DHJmw3bQD9Se495Sc-29" edge="1">
          <mxGeometry width="50" height="50" relative="1" as="geometry">
            <mxPoint y="840" as="sourcePoint" />
            <mxPoint x="1431.3333333333333" y="840" as="targetPoint" />
            <Array as="points">
              <mxPoint x="726" y="842" />
              <mxPoint x="1370" y="843" />
              <mxPoint x="1370" y="1080" />
            </Array>
          </mxGeometry>
        </mxCell>
        <mxCell id="nroK3sQqDRNz_VUxStWH-57" value="" style="endArrow=classic;html=1;rounded=0;edgeStyle=orthogonalEdgeStyle;entryX=0;entryY=0.6;entryDx=0;entryDy=0;entryPerimeter=0;startArrow=none;startFill=0;endFill=1;" parent="1" edge="1">
          <mxGeometry width="50" height="50" relative="1" as="geometry">
            <mxPoint x="-498" y="831" as="sourcePoint" />
            <mxPoint x="1450" y="1040" as="targetPoint" />
            <Array as="points">
              <mxPoint x="1380" y="831" />
              <mxPoint x="1380" y="1040" />
            </Array>
          </mxGeometry>
        </mxCell>
        <mxCell id="nroK3sQqDRNz_VUxStWH-59" value="&lt;font color=&quot;#ff3333&quot;&gt;reset&lt;/font&gt;" style="text;html=1;align=center;verticalAlign=middle;resizable=0;points=[];autosize=1;strokeColor=none;fillColor=none;" parent="1" vertex="1">
          <mxGeometry x="-541" y="816" width="50" height="30" as="geometry" />
        </mxCell>
        <mxCell id="nroK3sQqDRNz_VUxStWH-60" value="&lt;font color=&quot;#ff8000&quot;&gt;clk&lt;/font&gt;" style="text;html=1;align=center;verticalAlign=middle;resizable=0;points=[];autosize=1;strokeColor=none;fillColor=none;" parent="1" vertex="1">
          <mxGeometry x="-536" y="827" width="40" height="30" as="geometry" />
        </mxCell>
        <mxCell id="nroK3sQqDRNz_VUxStWH-63" value="DUTY_BEST" style="text;html=1;align=center;verticalAlign=middle;resizable=0;points=[];autosize=1;strokeColor=none;fillColor=none;" parent="1" vertex="1">
          <mxGeometry x="-580" y="805" width="90" height="30" as="geometry" />
        </mxCell>
        <mxCell id="nroK3sQqDRNz_VUxStWH-66" value="pmod_1" style="text;html=1;align=center;verticalAlign=middle;resizable=0;points=[];autosize=1;strokeColor=none;fillColor=none;" parent="1" vertex="1">
          <mxGeometry x="1810" y="1005" width="70" height="30" as="geometry" />
        </mxCell>
        <mxCell id="nroK3sQqDRNz_VUxStWH-72" value="1&#39;b0" style="text;html=1;align=center;verticalAlign=middle;resizable=0;points=[];autosize=1;strokeColor=none;fillColor=none;" parent="1" vertex="1">
          <mxGeometry x="-403" y="1485" width="50" height="30" as="geometry" />
        </mxCell>
        <mxCell id="nroK3sQqDRNz_VUxStWH-75" value="PS2_CLK" style="text;html=1;align=center;verticalAlign=middle;resizable=0;points=[];autosize=1;strokeColor=none;fillColor=none;" parent="1" vertex="1">
          <mxGeometry x="-477" y="1447" width="80" height="30" as="geometry" />
        </mxCell>
        <mxCell id="nroK3sQqDRNz_VUxStWH-76" value="PS2_DATA" style="text;html=1;align=center;verticalAlign=middle;resizable=0;points=[];autosize=1;strokeColor=none;fillColor=none;" parent="1" vertex="1">
          <mxGeometry x="-480" y="1406" width="80" height="30" as="geometry" />
        </mxCell>
        <mxCell id="nroK3sQqDRNz_VUxStWH-92" value="GND" style="text;html=1;align=center;verticalAlign=middle;resizable=0;points=[];autosize=1;strokeColor=none;fillColor=none;" parent="1" vertex="1">
          <mxGeometry x="24" y="1400" width="50" height="30" as="geometry" />
        </mxCell>
        <mxCell id="nroK3sQqDRNz_VUxStWH-93" value="GND" style="text;html=1;align=center;verticalAlign=middle;resizable=0;points=[];autosize=1;strokeColor=none;fillColor=none;" parent="1" vertex="1">
          <mxGeometry x="24" y="1431" width="50" height="30" as="geometry" />
        </mxCell>
        <mxCell id="nroK3sQqDRNz_VUxStWH-94" value="GND" style="text;html=1;align=center;verticalAlign=middle;resizable=0;points=[];autosize=1;strokeColor=none;fillColor=none;" parent="1" vertex="1">
          <mxGeometry x="24" y="1500" width="50" height="30" as="geometry" />
        </mxCell>
        <mxCell id="nroK3sQqDRNz_VUxStWH-95" value="" style="ellipse;whiteSpace=wrap;html=1;aspect=fixed;fillColor=#000000;" parent="1" vertex="1">
          <mxGeometry x="208" y="829" width="4" height="4" as="geometry" />
        </mxCell>
        <mxCell id="nroK3sQqDRNz_VUxStWH-97" value="" style="ellipse;whiteSpace=wrap;html=1;aspect=fixed;fillColor=#000000;" parent="1" vertex="1">
          <mxGeometry x="218" y="839" width="4" height="4" as="geometry" />
        </mxCell>
        <mxCell id="nroK3sQqDRNz_VUxStWH-98" value="" style="ellipse;whiteSpace=wrap;html=1;aspect=fixed;fillColor=#000000;" parent="1" vertex="1">
          <mxGeometry x="618" y="829" width="4" height="4" as="geometry" />
        </mxCell>
        <mxCell id="nroK3sQqDRNz_VUxStWH-99" style="edgeStyle=orthogonalEdgeStyle;rounded=0;orthogonalLoop=1;jettySize=auto;html=1;exitX=1;exitY=0.5;exitDx=0;exitDy=-5;exitPerimeter=0;endArrow=none;endFill=0;entryX=0.40654205607476634;entryY=1;entryDx=10;entryDy=0;entryPerimeter=0;" parent="1" source="nroK3sQqDRNz_VUxStWH-102" target="pH9DHJmw3bQD9Se495Sc-9" edge="1">
          <mxGeometry relative="1" as="geometry">
            <mxPoint x="1.9999999999997726" y="1167.1538461538462" as="targetPoint" />
          </mxGeometry>
        </mxCell>
        <mxCell id="nroK3sQqDRNz_VUxStWH-116" value="&lt;font style=&quot;font-size: 12px;&quot;&gt;tag&lt;/font&gt;" style="edgeLabel;html=1;align=center;verticalAlign=middle;resizable=0;points=[];" parent="nroK3sQqDRNz_VUxStWH-99" vertex="1" connectable="0">
          <mxGeometry x="0.3547" y="1" relative="1" as="geometry">
            <mxPoint as="offset" />
          </mxGeometry>
        </mxCell>
        <mxCell id="nroK3sQqDRNz_VUxStWH-100" style="edgeStyle=orthogonalEdgeStyle;rounded=0;orthogonalLoop=1;jettySize=auto;html=1;endArrow=none;endFill=0;exitX=0;exitY=0.5;exitDx=0;exitDy=0;exitPerimeter=0;" parent="1" source="nroK3sQqDRNz_VUxStWH-111" edge="1">
          <mxGeometry relative="1" as="geometry">
            <mxPoint x="-10.384615384615472" y="1167.9230769230767" as="targetPoint" />
            <mxPoint x="-418" y="1122" as="sourcePoint" />
            <Array as="points">
              <mxPoint x="-438" y="1208" />
              <mxPoint x="-438" y="1062" />
              <mxPoint x="-10" y="1062" />
            </Array>
          </mxGeometry>
        </mxCell>
        <mxCell id="nroK3sQqDRNz_VUxStWH-101" style="edgeStyle=orthogonalEdgeStyle;rounded=0;orthogonalLoop=1;jettySize=auto;html=1;exitX=0;exitY=0.22777777777777777;exitDx=0;exitDy=3;exitPerimeter=0;endArrow=none;endFill=0;" parent="1" source="nroK3sQqDRNz_VUxStWH-102" edge="1">
          <mxGeometry relative="1" as="geometry">
            <mxPoint x="-138.33333333333303" y="1062" as="targetPoint" />
            <Array as="points">
              <mxPoint x="-138" y="1092" />
              <mxPoint x="-138" y="1092" />
            </Array>
          </mxGeometry>
        </mxCell>
        <mxCell id="nroK3sQqDRNz_VUxStWH-152" style="edgeStyle=orthogonalEdgeStyle;rounded=0;orthogonalLoop=1;jettySize=auto;html=1;exitX=0.40654205607476634;exitY=1;exitDx=10;exitDy=0;exitPerimeter=0;endArrow=none;endFill=0;startArrow=classic;startFill=1;" parent="1" source="nroK3sQqDRNz_VUxStWH-102" edge="1">
          <mxGeometry relative="1" as="geometry">
            <mxPoint x="90.79310344827582" y="1547.2068965517242" as="targetPoint" />
            <Array as="points">
              <mxPoint x="-85" y="1340" />
              <mxPoint x="91" y="1340" />
            </Array>
          </mxGeometry>
        </mxCell>
        <mxCell id="nroK3sQqDRNz_VUxStWH-153" value="&lt;font style=&quot;font-size: 12px;&quot;&gt;been_ready&lt;/font&gt;" style="edgeLabel;html=1;align=center;verticalAlign=middle;resizable=0;points=[];" parent="nroK3sQqDRNz_VUxStWH-152" vertex="1" connectable="0">
          <mxGeometry x="-0.8306" relative="1" as="geometry">
            <mxPoint y="10" as="offset" />
          </mxGeometry>
        </mxCell>
        <mxCell id="nroK3sQqDRNz_VUxStWH-102" value="Mux" style="shadow=0;dashed=0;align=center;html=1;strokeWidth=1;shape=mxgraph.electrical.abstract.mux2;whiteSpace=wrap;" parent="1" vertex="1">
          <mxGeometry x="-138" y="1082" width="107" height="180" as="geometry" />
        </mxCell>
        <mxCell id="nroK3sQqDRNz_VUxStWH-149" style="edgeStyle=orthogonalEdgeStyle;rounded=0;orthogonalLoop=1;jettySize=auto;html=1;exitX=0.40654205607476634;exitY=1;exitDx=10;exitDy=0;exitPerimeter=0;endArrow=none;endFill=0;startArrow=classic;startFill=1;" parent="1" source="nroK3sQqDRNz_VUxStWH-104" edge="1">
          <mxGeometry relative="1" as="geometry">
            <mxPoint x="-190.71428571428578" y="1360" as="targetPoint" />
          </mxGeometry>
        </mxCell>
        <mxCell id="nroK3sQqDRNz_VUxStWH-150" value="[KEY_CODES_ENTER]" style="edgeLabel;html=1;align=center;verticalAlign=middle;resizable=0;points=[];" parent="nroK3sQqDRNz_VUxStWH-149" vertex="1" connectable="0">
          <mxGeometry x="0.2309" y="1" relative="1" as="geometry">
            <mxPoint as="offset" />
          </mxGeometry>
        </mxCell>
        <mxCell id="nroK3sQqDRNz_VUxStWH-104" value="Mux" style="shadow=0;dashed=0;align=center;html=1;strokeWidth=1;shape=mxgraph.electrical.abstract.mux2;whiteSpace=wrap;" parent="1" vertex="1">
          <mxGeometry x="-244" y="1123" width="107" height="180" as="geometry" />
        </mxCell>
        <mxCell id="nroK3sQqDRNz_VUxStWH-106" style="edgeStyle=orthogonalEdgeStyle;rounded=0;orthogonalLoop=1;jettySize=auto;html=1;exitX=0;exitY=0.22777777777777777;exitDx=0;exitDy=3;exitPerimeter=0;endArrow=none;endFill=0;" parent="1" source="nroK3sQqDRNz_VUxStWH-107" edge="1">
          <mxGeometry relative="1" as="geometry">
            <mxPoint x="-438" y="1125.7586206896553" as="targetPoint" />
          </mxGeometry>
        </mxCell>
        <mxCell id="nroK3sQqDRNz_VUxStWH-148" style="edgeStyle=orthogonalEdgeStyle;rounded=0;orthogonalLoop=1;jettySize=auto;html=1;exitX=0.40654205607476634;exitY=1;exitDx=10;exitDy=0;exitPerimeter=0;endArrow=none;endFill=0;startArrow=classic;startFill=1;" parent="1" source="nroK3sQqDRNz_VUxStWH-107" edge="1">
          <mxGeometry relative="1" as="geometry">
            <mxPoint x="70" y="1480" as="targetPoint" />
            <Array as="points">
              <mxPoint x="-344" y="1360" />
              <mxPoint x="70" y="1360" />
            </Array>
          </mxGeometry>
        </mxCell>
        <mxCell id="nroK3sQqDRNz_VUxStWH-107" value="Mux" style="shadow=0;dashed=0;align=center;html=1;strokeWidth=1;shape=mxgraph.electrical.abstract.mux2;whiteSpace=wrap;" parent="1" vertex="1">
          <mxGeometry x="-398" y="1082" width="107" height="180" as="geometry" />
        </mxCell>
        <mxCell id="nroK3sQqDRNz_VUxStWH-108" style="edgeStyle=orthogonalEdgeStyle;rounded=0;orthogonalLoop=1;jettySize=auto;html=1;exitX=1;exitY=0.5;exitDx=0;exitDy=-5;exitPerimeter=0;entryX=0;entryY=0.22777777777777777;entryDx=0;entryDy=3;entryPerimeter=0;endArrow=none;endFill=0;" parent="1" source="nroK3sQqDRNz_VUxStWH-107" target="nroK3sQqDRNz_VUxStWH-104" edge="1">
          <mxGeometry relative="1" as="geometry" />
        </mxCell>
        <mxCell id="nroK3sQqDRNz_VUxStWH-110" value="1&#39;b0" style="text;html=1;align=center;verticalAlign=middle;resizable=0;points=[];autosize=1;strokeColor=none;fillColor=none;" parent="1" vertex="1">
          <mxGeometry x="-283" y="1234" width="50" height="30" as="geometry" />
        </mxCell>
        <mxCell id="nroK3sQqDRNz_VUxStWH-111" value="" style="verticalLabelPosition=bottom;shadow=0;dashed=0;align=center;html=1;verticalAlign=top;shape=mxgraph.electrical.logic_gates.inverter_2" parent="1" vertex="1">
          <mxGeometry x="-428" y="1198" width="30" height="20" as="geometry" />
        </mxCell>
        <mxCell id="nroK3sQqDRNz_VUxStWH-113" value="" style="ellipse;whiteSpace=wrap;html=1;aspect=fixed;fillColor=#000000;" parent="1" vertex="1">
          <mxGeometry x="-12.7" y="1165" width="4" height="4" as="geometry" />
        </mxCell>
        <mxCell id="nroK3sQqDRNz_VUxStWH-114" value="" style="ellipse;whiteSpace=wrap;html=1;aspect=fixed;fillColor=#000000;" parent="1" vertex="1">
          <mxGeometry x="-440" y="1124" width="4" height="4" as="geometry" />
        </mxCell>
        <mxCell id="nroK3sQqDRNz_VUxStWH-115" value="" style="ellipse;whiteSpace=wrap;html=1;aspect=fixed;fillColor=#000000;" parent="1" vertex="1">
          <mxGeometry x="-140" y="1060" width="4" height="4" as="geometry" />
        </mxCell>
        <mxCell id="nroK3sQqDRNz_VUxStWH-117" style="edgeStyle=orthogonalEdgeStyle;rounded=0;orthogonalLoop=1;jettySize=auto;html=1;exitX=1;exitY=0.5;exitDx=0;exitDy=-5;exitPerimeter=0;endArrow=none;endFill=0;entryX=0;entryY=0.5;entryDx=0;entryDy=0;" parent="1" source="nroK3sQqDRNz_VUxStWH-119" target="pH9DHJmw3bQD9Se495Sc-6" edge="1">
          <mxGeometry relative="1" as="geometry">
            <mxPoint x="740" y="1160" as="targetPoint" />
            <Array as="points">
              <mxPoint x="640" y="1287" />
              <mxPoint x="640" y="960" />
            </Array>
          </mxGeometry>
        </mxCell>
        <mxCell id="nroK3sQqDRNz_VUxStWH-160" value="sel" style="edgeLabel;html=1;align=center;verticalAlign=middle;resizable=0;points=[];fontSize=12;" parent="nroK3sQqDRNz_VUxStWH-117" vertex="1" connectable="0">
          <mxGeometry x="0.1116" y="-4" relative="1" as="geometry">
            <mxPoint x="-6" as="offset" />
          </mxGeometry>
        </mxCell>
        <mxCell id="nroK3sQqDRNz_VUxStWH-118" style="edgeStyle=orthogonalEdgeStyle;rounded=0;orthogonalLoop=1;jettySize=auto;html=1;exitX=0;exitY=0.22777777777777777;exitDx=0;exitDy=3;exitPerimeter=0;endArrow=none;endFill=0;" parent="1" source="nroK3sQqDRNz_VUxStWH-119" edge="1">
          <mxGeometry relative="1" as="geometry">
            <mxPoint x="497" y="1142" as="targetPoint" />
            <Array as="points">
              <mxPoint x="497" y="1246" />
            </Array>
          </mxGeometry>
        </mxCell>
        <mxCell id="nroK3sQqDRNz_VUxStWH-119" value="Mux" style="shadow=0;dashed=0;align=center;html=1;strokeWidth=1;shape=mxgraph.electrical.abstract.mux2;whiteSpace=wrap;" parent="1" vertex="1">
          <mxGeometry x="498.5" y="1202" width="107" height="180" as="geometry" />
        </mxCell>
        <mxCell id="nroK3sQqDRNz_VUxStWH-121" value="Mux" style="shadow=0;dashed=0;align=center;html=1;strokeWidth=1;shape=mxgraph.electrical.abstract.mux2;whiteSpace=wrap;" parent="1" vertex="1">
          <mxGeometry x="365" y="1243" width="107" height="180" as="geometry" />
        </mxCell>
        <mxCell id="nroK3sQqDRNz_VUxStWH-122" style="edgeStyle=orthogonalEdgeStyle;rounded=0;orthogonalLoop=1;jettySize=auto;html=1;exitX=1;exitY=0.5;exitDx=0;exitDy=-5;exitPerimeter=0;entryX=0;entryY=0.6833333333333333;entryDx=0;entryDy=3;entryPerimeter=0;endArrow=none;endFill=0;" parent="1" source="nroK3sQqDRNz_VUxStWH-121" target="nroK3sQqDRNz_VUxStWH-119" edge="1">
          <mxGeometry relative="1" as="geometry" />
        </mxCell>
        <mxCell id="nroK3sQqDRNz_VUxStWH-141" style="edgeStyle=orthogonalEdgeStyle;rounded=0;orthogonalLoop=1;jettySize=auto;html=1;exitX=0.40654205607476634;exitY=1;exitDx=10;exitDy=0;exitPerimeter=0;endArrow=none;endFill=0;startArrow=classic;startFill=1;" parent="1" source="nroK3sQqDRNz_VUxStWH-124" edge="1">
          <mxGeometry relative="1" as="geometry">
            <mxPoint x="284.2857142857142" y="1480" as="targetPoint" />
          </mxGeometry>
        </mxCell>
        <mxCell id="nroK3sQqDRNz_VUxStWH-142" value="[KEY_CODES_W]" style="edgeLabel;html=1;align=center;verticalAlign=middle;resizable=0;points=[];" parent="nroK3sQqDRNz_VUxStWH-141" vertex="1" connectable="0">
          <mxGeometry x="0.5644" relative="1" as="geometry">
            <mxPoint y="-1" as="offset" />
          </mxGeometry>
        </mxCell>
        <mxCell id="nroK3sQqDRNz_VUxStWH-124" value="Mux" style="shadow=0;dashed=0;align=center;html=1;strokeWidth=1;shape=mxgraph.electrical.abstract.mux2;whiteSpace=wrap;" parent="1" vertex="1">
          <mxGeometry x="231" y="1202" width="107" height="180" as="geometry" />
        </mxCell>
        <mxCell id="nroK3sQqDRNz_VUxStWH-125" style="edgeStyle=orthogonalEdgeStyle;rounded=0;orthogonalLoop=1;jettySize=auto;html=1;exitX=1;exitY=0.5;exitDx=0;exitDy=-5;exitPerimeter=0;entryX=0;entryY=0.22777777777777777;entryDx=0;entryDy=3;entryPerimeter=0;endArrow=none;endFill=0;" parent="1" source="nroK3sQqDRNz_VUxStWH-124" edge="1">
          <mxGeometry relative="1" as="geometry">
            <mxPoint x="377" y="1287" as="targetPoint" />
          </mxGeometry>
        </mxCell>
        <mxCell id="nroK3sQqDRNz_VUxStWH-143" style="edgeStyle=orthogonalEdgeStyle;rounded=0;orthogonalLoop=1;jettySize=auto;html=1;exitX=0.40654205607476634;exitY=1;exitDx=10;exitDy=0;exitPerimeter=0;endArrow=none;endFill=0;startArrow=classic;startFill=1;" parent="1" source="nroK3sQqDRNz_VUxStWH-127" edge="1">
          <mxGeometry relative="1" as="geometry">
            <mxPoint x="152.28571428571422" y="1480" as="targetPoint" />
          </mxGeometry>
        </mxCell>
        <mxCell id="nroK3sQqDRNz_VUxStWH-127" value="Mux" style="shadow=0;dashed=0;align=center;html=1;strokeWidth=1;shape=mxgraph.electrical.abstract.mux2;whiteSpace=wrap;" parent="1" vertex="1">
          <mxGeometry x="98.5" y="1161" width="107" height="180" as="geometry" />
        </mxCell>
        <mxCell id="nroK3sQqDRNz_VUxStWH-129" style="edgeStyle=orthogonalEdgeStyle;rounded=0;orthogonalLoop=1;jettySize=auto;html=1;exitX=1;exitY=0.5;exitDx=0;exitDy=-5;exitPerimeter=0;entryX=0;entryY=0.22777777777777777;entryDx=0;entryDy=3;entryPerimeter=0;endArrow=none;endFill=0;" parent="1" source="nroK3sQqDRNz_VUxStWH-127" target="nroK3sQqDRNz_VUxStWH-124" edge="1">
          <mxGeometry relative="1" as="geometry" />
        </mxCell>
        <mxCell id="nroK3sQqDRNz_VUxStWH-130" style="edgeStyle=orthogonalEdgeStyle;rounded=0;orthogonalLoop=1;jettySize=auto;html=1;exitX=1;exitY=0.5;exitDx=0;exitDy=-5;exitPerimeter=0;entryX=0;entryY=0.22777777777777777;entryDx=0;entryDy=3;entryPerimeter=0;endArrow=none;endFill=0;" parent="1" source="nroK3sQqDRNz_VUxStWH-119" target="nroK3sQqDRNz_VUxStWH-127" edge="1">
          <mxGeometry relative="1" as="geometry">
            <Array as="points">
              <mxPoint x="627" y="1287" />
              <mxPoint x="627" y="1142" />
              <mxPoint x="97" y="1142" />
              <mxPoint x="97" y="1205" />
            </Array>
          </mxGeometry>
        </mxCell>
        <mxCell id="nroK3sQqDRNz_VUxStWH-131" value="1&#39;b1" style="text;html=1;align=center;verticalAlign=middle;resizable=0;points=[];autosize=1;strokeColor=none;fillColor=none;" parent="1" vertex="1">
          <mxGeometry x="60" y="1273" width="50" height="30" as="geometry" />
        </mxCell>
        <mxCell id="nroK3sQqDRNz_VUxStWH-132" value="1&#39;b0" style="text;html=1;align=center;verticalAlign=middle;resizable=0;points=[];autosize=1;strokeColor=none;fillColor=none;" parent="1" vertex="1">
          <mxGeometry x="193" y="1314" width="50" height="30" as="geometry" />
        </mxCell>
        <mxCell id="nroK3sQqDRNz_VUxStWH-133" value="1&#39;b0" style="text;html=1;align=center;verticalAlign=middle;resizable=0;points=[];autosize=1;strokeColor=none;fillColor=none;" parent="1" vertex="1">
          <mxGeometry x="327" y="1355" width="50" height="30" as="geometry" />
        </mxCell>
        <mxCell id="nroK3sQqDRNz_VUxStWH-135" value="" style="ellipse;whiteSpace=wrap;html=1;aspect=fixed;fillColor=#000000;" parent="1" vertex="1">
          <mxGeometry x="625" y="1285" width="4" height="4" as="geometry" />
        </mxCell>
        <mxCell id="nroK3sQqDRNz_VUxStWH-136" value="" style="ellipse;whiteSpace=wrap;html=1;aspect=fixed;fillColor=#000000;" parent="1" vertex="1">
          <mxGeometry x="495" y="1140" width="4" height="4" as="geometry" />
        </mxCell>
        <mxCell id="nroK3sQqDRNz_VUxStWH-81" style="edgeStyle=orthogonalEdgeStyle;rounded=0;orthogonalLoop=1;jettySize=auto;html=1;exitX=1;exitY=0.5;exitDx=0;exitDy=0;exitPerimeter=0;entryX=0.40654205607476634;entryY=1;entryDx=10;entryDy=0;entryPerimeter=0;" parent="1" source="pH9DHJmw3bQD9Se495Sc-1" target="nroK3sQqDRNz_VUxStWH-121" edge="1">
          <mxGeometry relative="1" as="geometry">
            <mxPoint x="74" y="1480.310344827586" as="targetPoint" />
          </mxGeometry>
        </mxCell>
        <mxCell id="nroK3sQqDRNz_VUxStWH-140" value="[KEY_CODES_ENTER]" style="edgeLabel;html=1;align=center;verticalAlign=middle;resizable=0;points=[];" parent="nroK3sQqDRNz_VUxStWH-81" vertex="1" connectable="0">
          <mxGeometry x="0.857" y="1" relative="1" as="geometry">
            <mxPoint as="offset" />
          </mxGeometry>
        </mxCell>
        <mxCell id="nroK3sQqDRNz_VUxStWH-144" value="[KEY_CODES_S]" style="edgeLabel;html=1;align=center;verticalAlign=middle;resizable=0;points=[];" parent="1" vertex="1" connectable="0">
          <mxGeometry x="150.997767427986" y="1458.0032700557656" as="geometry" />
        </mxCell>
        <mxCell id="nroK3sQqDRNz_VUxStWH-145" style="edgeStyle=orthogonalEdgeStyle;rounded=0;orthogonalLoop=1;jettySize=auto;html=1;exitX=0.40654205607476634;exitY=1;exitDx=10;exitDy=0;exitPerimeter=0;entryX=1;entryY=0.83;entryDx=0;entryDy=0;entryPerimeter=0;startArrow=classic;startFill=1;endArrow=none;endFill=0;" parent="1" source="nroK3sQqDRNz_VUxStWH-119" target="pH9DHJmw3bQD9Se495Sc-1" edge="1">
          <mxGeometry relative="1" as="geometry" />
        </mxCell>
        <mxCell id="nroK3sQqDRNz_VUxStWH-146" value="&lt;font style=&quot;font-size: 12px;&quot;&gt;been_ready&lt;/font&gt;" style="edgeLabel;html=1;align=center;verticalAlign=middle;resizable=0;points=[];" parent="1" vertex="1" connectable="0">
          <mxGeometry x="551.998686032299" y="1459.0073941854198" as="geometry" />
        </mxCell>
        <mxCell id="nroK3sQqDRNz_VUxStWH-151" value="[KEY_CODES_R]" style="edgeLabel;html=1;align=center;verticalAlign=middle;resizable=0;points=[];" parent="1" vertex="1" connectable="0">
          <mxGeometry x="-346.00071265065543" y="1338.000755197224" as="geometry" />
        </mxCell>
        <mxCell id="nroK3sQqDRNz_VUxStWH-155" value="" style="ellipse;whiteSpace=wrap;html=1;aspect=fixed;fillColor=#000000;" parent="1" vertex="1">
          <mxGeometry x="-192.5" y="1358" width="4" height="4" as="geometry" />
        </mxCell>
        <mxCell id="nroK3sQqDRNz_VUxStWH-156" value="" style="ellipse;whiteSpace=wrap;html=1;aspect=fixed;fillColor=#000000;" parent="1" vertex="1">
          <mxGeometry x="150.3" y="1478" width="4" height="4" as="geometry" />
        </mxCell>
        <mxCell id="nroK3sQqDRNz_VUxStWH-157" value="" style="ellipse;whiteSpace=wrap;html=1;aspect=fixed;fillColor=#000000;" parent="1" vertex="1">
          <mxGeometry x="282.3" y="1478" width="4" height="4" as="geometry" />
        </mxCell>
        <mxCell id="nroK3sQqDRNz_VUxStWH-158" value="" style="ellipse;whiteSpace=wrap;html=1;aspect=fixed;fillColor=#000000;" parent="1" vertex="1">
          <mxGeometry x="68" y="1478" width="4" height="4" as="geometry" />
        </mxCell>
        <mxCell id="nroK3sQqDRNz_VUxStWH-159" value="" style="ellipse;whiteSpace=wrap;html=1;aspect=fixed;fillColor=#000000;" parent="1" vertex="1">
          <mxGeometry x="89" y="1544" width="4" height="4" as="geometry" />
        </mxCell>
        <mxCell id="nroK3sQqDRNz_VUxStWH-62" style="edgeStyle=orthogonalEdgeStyle;rounded=0;orthogonalLoop=1;jettySize=auto;html=1;exitX=0;exitY=0.4;exitDx=0;exitDy=0;exitPerimeter=0;endArrow=none;endFill=0;startArrow=classic;startFill=1;" parent="1" source="pH9DHJmw3bQD9Se495Sc-25" edge="1">
          <mxGeometry relative="1" as="geometry">
            <mxPoint x="-497" y="820" as="targetPoint" />
            <Array as="points">
              <mxPoint x="1390" y="1000" />
              <mxPoint x="1390" y="820" />
            </Array>
          </mxGeometry>
        </mxCell>
        <mxCell id="nroK3sQqDRNz_VUxStWH-161" value="" style="ellipse;whiteSpace=wrap;html=1;aspect=fixed;fillColor=#000000;" parent="1" vertex="1">
          <mxGeometry x="-491" y="840" width="4" height="4" as="geometry" />
        </mxCell>
        <mxCell id="nroK3sQqDRNz_VUxStWH-164" value="" style="group" parent="1" vertex="1" connectable="0">
          <mxGeometry x="-15" y="1464" width="40" height="21" as="geometry" />
        </mxCell>
        <mxCell id="nroK3sQqDRNz_VUxStWH-162" value="" style="endArrow=none;html=1;rounded=0;" parent="nroK3sQqDRNz_VUxStWH-164" edge="1">
          <mxGeometry width="50" height="50" relative="1" as="geometry">
            <mxPoint x="21" y="21" as="sourcePoint" />
            <mxPoint x="31" y="11" as="targetPoint" />
          </mxGeometry>
        </mxCell>
        <mxCell id="nroK3sQqDRNz_VUxStWH-163" value="512" style="text;html=1;align=center;verticalAlign=middle;resizable=0;points=[];autosize=1;strokeColor=none;fillColor=none;fontSize=8;" parent="nroK3sQqDRNz_VUxStWH-164" vertex="1">
          <mxGeometry width="40" height="20" as="geometry" />
        </mxCell>
        <mxCell id="nroK3sQqDRNz_VUxStWH-165" value="" style="group" parent="1" vertex="1" connectable="0">
          <mxGeometry x="-14" y="1498" width="40" height="21" as="geometry" />
        </mxCell>
        <mxCell id="nroK3sQqDRNz_VUxStWH-166" value="" style="endArrow=none;html=1;rounded=0;" parent="nroK3sQqDRNz_VUxStWH-165" edge="1">
          <mxGeometry width="50" height="50" relative="1" as="geometry">
            <mxPoint x="21" y="21" as="sourcePoint" />
            <mxPoint x="31" y="11" as="targetPoint" />
          </mxGeometry>
        </mxCell>
        <mxCell id="nroK3sQqDRNz_VUxStWH-167" value="9" style="text;html=1;align=center;verticalAlign=middle;resizable=0;points=[];autosize=1;strokeColor=none;fillColor=none;fontSize=8;" parent="nroK3sQqDRNz_VUxStWH-165" vertex="1">
          <mxGeometry x="9" width="30" height="20" as="geometry" />
        </mxCell>
        <mxCell id="nroK3sQqDRNz_VUxStWH-168" value="" style="group" parent="1" vertex="1" connectable="0">
          <mxGeometry x="174" y="880" width="40" height="21" as="geometry" />
        </mxCell>
        <mxCell id="nroK3sQqDRNz_VUxStWH-169" value="" style="endArrow=none;html=1;rounded=0;" parent="nroK3sQqDRNz_VUxStWH-168" edge="1">
          <mxGeometry width="50" height="50" relative="1" as="geometry">
            <mxPoint x="21" y="21" as="sourcePoint" />
            <mxPoint x="31" y="11" as="targetPoint" />
          </mxGeometry>
        </mxCell>
        <mxCell id="nroK3sQqDRNz_VUxStWH-170" value="10" style="text;html=1;align=center;verticalAlign=middle;resizable=0;points=[];autosize=1;strokeColor=none;fillColor=none;fontSize=8;" parent="nroK3sQqDRNz_VUxStWH-168" vertex="1">
          <mxGeometry x="5" width="30" height="20" as="geometry" />
        </mxCell>
        <mxCell id="nroK3sQqDRNz_VUxStWH-171" value="" style="group" parent="1" vertex="1" connectable="0">
          <mxGeometry x="1392" y="985" width="40" height="21" as="geometry" />
        </mxCell>
        <mxCell id="nroK3sQqDRNz_VUxStWH-172" value="" style="endArrow=none;html=1;rounded=0;" parent="nroK3sQqDRNz_VUxStWH-171" edge="1">
          <mxGeometry width="50" height="50" relative="1" as="geometry">
            <mxPoint x="21" y="21" as="sourcePoint" />
            <mxPoint x="31" y="11" as="targetPoint" />
          </mxGeometry>
        </mxCell>
        <mxCell id="nroK3sQqDRNz_VUxStWH-173" value="10" style="text;html=1;align=center;verticalAlign=middle;resizable=0;points=[];autosize=1;strokeColor=none;fillColor=none;fontSize=8;" parent="nroK3sQqDRNz_VUxStWH-171" vertex="1">
          <mxGeometry x="5" width="30" height="20" as="geometry" />
        </mxCell>
        <mxCell id="nroK3sQqDRNz_VUxStWH-174" value="" style="ellipse;whiteSpace=wrap;html=1;aspect=fixed;fillColor=#000000;" parent="1" vertex="1">
          <mxGeometry x="198" y="818" width="4" height="4" as="geometry" />
        </mxCell>
        <mxCell id="nroK3sQqDRNz_VUxStWH-175" value="" style="group" parent="1" vertex="1" connectable="0">
          <mxGeometry x="165" y="944" width="40" height="21" as="geometry" />
        </mxCell>
        <mxCell id="nroK3sQqDRNz_VUxStWH-176" value="" style="endArrow=none;html=1;rounded=0;" parent="nroK3sQqDRNz_VUxStWH-175" edge="1">
          <mxGeometry width="50" height="50" relative="1" as="geometry">
            <mxPoint x="21" y="21" as="sourcePoint" />
            <mxPoint x="31" y="11" as="targetPoint" />
          </mxGeometry>
        </mxCell>
        <mxCell id="nroK3sQqDRNz_VUxStWH-177" value="32" style="text;html=1;align=center;verticalAlign=middle;resizable=0;points=[];autosize=1;strokeColor=none;fillColor=none;fontSize=8;" parent="nroK3sQqDRNz_VUxStWH-175" vertex="1">
          <mxGeometry x="8" width="30" height="20" as="geometry" />
        </mxCell>
        <mxCell id="nroK3sQqDRNz_VUxStWH-178" value="" style="group" parent="1" vertex="1" connectable="0">
          <mxGeometry x="602" y="1004" width="40" height="21" as="geometry" />
        </mxCell>
        <mxCell id="nroK3sQqDRNz_VUxStWH-179" value="" style="endArrow=none;html=1;rounded=0;" parent="nroK3sQqDRNz_VUxStWH-178" edge="1">
          <mxGeometry width="50" height="50" relative="1" as="geometry">
            <mxPoint x="21" y="21" as="sourcePoint" />
            <mxPoint x="31" y="11" as="targetPoint" />
          </mxGeometry>
        </mxCell>
        <mxCell id="nroK3sQqDRNz_VUxStWH-180" value="32" style="text;html=1;align=center;verticalAlign=middle;resizable=0;points=[];autosize=1;strokeColor=none;fillColor=none;fontSize=8;" parent="nroK3sQqDRNz_VUxStWH-178" vertex="1">
          <mxGeometry x="8" width="30" height="20" as="geometry" />
        </mxCell>
        <mxCell id="nroK3sQqDRNz_VUxStWH-181" value="" style="group" parent="1" vertex="1" connectable="0">
          <mxGeometry x="1033" y="945" width="40" height="21" as="geometry" />
        </mxCell>
        <mxCell id="nroK3sQqDRNz_VUxStWH-182" value="" style="endArrow=none;html=1;rounded=0;" parent="nroK3sQqDRNz_VUxStWH-181" edge="1">
          <mxGeometry width="50" height="50" relative="1" as="geometry">
            <mxPoint x="21" y="21" as="sourcePoint" />
            <mxPoint x="31" y="11" as="targetPoint" />
          </mxGeometry>
        </mxCell>
        <mxCell id="nroK3sQqDRNz_VUxStWH-183" value="8" style="text;html=1;align=center;verticalAlign=middle;resizable=0;points=[];autosize=1;strokeColor=none;fillColor=none;fontSize=8;" parent="nroK3sQqDRNz_VUxStWH-181" vertex="1">
          <mxGeometry x="8" width="30" height="20" as="geometry" />
        </mxCell>
        <mxCell id="qbABz30h0iUB20YgcGLr-18" style="edgeStyle=orthogonalEdgeStyle;rounded=0;orthogonalLoop=1;jettySize=auto;html=1;exitX=1;exitY=0.25;exitDx=0;exitDy=0;exitPerimeter=0;endArrow=none;endFill=0;" edge="1" parent="1" source="qbABz30h0iUB20YgcGLr-3">
          <mxGeometry relative="1" as="geometry">
            <mxPoint x="1254" y="1981" as="targetPoint" />
          </mxGeometry>
        </mxCell>
        <mxCell id="qbABz30h0iUB20YgcGLr-3" value="" style="verticalLabelPosition=bottom;shadow=0;dashed=0;align=center;html=1;verticalAlign=top;shape=stencil(rVXBjoMgEP0aj7uxEG2vu269N9kfQEuVFIEgte3fL4hNiorauokeeAPz3gwzQwCTukQCByBEtcC5CuBPAECDJEEZ1TDQltKCu9AuGaqwRfQf/t7b0ykl4iOlXNg9tZL8jK/kqLrDhJVYEmWtV4ttwtYj3Afhl0bNB5OcM6Z1EM5qx/Jk184RYaovxXgWmqTCCkuLdopvzurerT5BZIEApK9Q7d+g2r5HdVhAtVkYFUw04ssuTDKUnwvJL+w4KlCa2hiUQneRsauoH/2EHg8rTE5c4gk5J0KprbGJpApkqm9geJgr3mDfjflEux4oYdgb9jIXUyLi9SKWuXBF7NanouvsVbnoRRJNdtC4DPj/+ZzpY417qk4P2rl6VfhmegxRUjBLl2Nmuv4xUp1R1zzty7hSvHKbMHJvYEb4Qu7DIu7tC9wjiQVxod+h796oGEyEFrWvVwv8AQ==);strokeColor=default;strokeWidth=1;fontFamily=Helvetica;fontSize=12;fontColor=default;fillColor=default;noLabel=0;movableLabel=0;" vertex="1" parent="1">
          <mxGeometry x="1107" y="1961" width="100" height="80" as="geometry" />
        </mxCell>
        <mxCell id="qbABz30h0iUB20YgcGLr-5" value="" style="verticalLabelPosition=bottom;shadow=0;dashed=0;align=center;html=1;verticalAlign=top;shape=mxgraph.electrical.logic_gates.logic_gate;operation=or;rotation=-90;" vertex="1" parent="1">
          <mxGeometry x="1079" y="2041" width="55.5" height="39.5" as="geometry" />
        </mxCell>
        <mxCell id="qbABz30h0iUB20YgcGLr-6" style="edgeStyle=orthogonalEdgeStyle;rounded=0;orthogonalLoop=1;jettySize=auto;html=1;exitX=0;exitY=0.75;exitDx=0;exitDy=0;exitPerimeter=0;entryX=1;entryY=0.5;entryDx=0;entryDy=0;entryPerimeter=0;endArrow=none;endFill=0;" edge="1" parent="1" source="qbABz30h0iUB20YgcGLr-3" target="qbABz30h0iUB20YgcGLr-5">
          <mxGeometry relative="1" as="geometry" />
        </mxCell>
        <mxCell id="qbABz30h0iUB20YgcGLr-7" value="reset" style="text;html=1;align=center;verticalAlign=middle;resizable=0;points=[];autosize=1;strokeColor=none;fillColor=none;" vertex="1" parent="1">
          <mxGeometry x="1097" y="2080.5" width="50" height="30" as="geometry" />
        </mxCell>
        <mxCell id="qbABz30h0iUB20YgcGLr-8" value="clk" style="text;html=1;align=center;verticalAlign=middle;resizable=0;points=[];autosize=1;strokeColor=none;fillColor=none;" vertex="1" parent="1">
          <mxGeometry x="1075" y="2080.5" width="40" height="30" as="geometry" />
        </mxCell>
        <mxCell id="qbABz30h0iUB20YgcGLr-9" value="Mux" style="shadow=0;dashed=0;align=center;html=1;strokeWidth=1;shape=mxgraph.electrical.abstract.mux2;whiteSpace=wrap;" vertex="1" parent="1">
          <mxGeometry x="1000" y="1926" width="80" height="120" as="geometry" />
        </mxCell>
        <mxCell id="qbABz30h0iUB20YgcGLr-10" style="edgeStyle=orthogonalEdgeStyle;rounded=0;orthogonalLoop=1;jettySize=auto;html=1;exitX=1;exitY=0.5;exitDx=0;exitDy=-5;exitPerimeter=0;entryX=0;entryY=0.25;entryDx=0;entryDy=0;entryPerimeter=0;endArrow=none;endFill=0;" edge="1" parent="1" source="qbABz30h0iUB20YgcGLr-9" target="qbABz30h0iUB20YgcGLr-3">
          <mxGeometry relative="1" as="geometry" />
        </mxCell>
        <mxCell id="qbABz30h0iUB20YgcGLr-11" value="reset" style="text;html=1;align=center;verticalAlign=middle;resizable=0;points=[];autosize=1;strokeColor=none;fillColor=none;" vertex="1" parent="1">
          <mxGeometry x="1015" y="2041" width="50" height="30" as="geometry" />
        </mxCell>
        <mxCell id="qbABz30h0iUB20YgcGLr-12" value="8&#39;d0" style="text;html=1;align=center;verticalAlign=middle;resizable=0;points=[];autosize=1;strokeColor=none;fillColor=none;" vertex="1" parent="1">
          <mxGeometry x="961" y="1992" width="50" height="30" as="geometry" />
        </mxCell>
        <mxCell id="qbABz30h0iUB20YgcGLr-13" value="Mux" style="shadow=0;dashed=0;align=center;html=1;strokeWidth=1;shape=mxgraph.electrical.abstract.mux2;whiteSpace=wrap;" vertex="1" parent="1">
          <mxGeometry x="874" y="1900" width="80" height="120" as="geometry" />
        </mxCell>
        <mxCell id="qbABz30h0iUB20YgcGLr-14" style="edgeStyle=orthogonalEdgeStyle;rounded=0;orthogonalLoop=1;jettySize=auto;html=1;exitX=1;exitY=0.5;exitDx=0;exitDy=-5;exitPerimeter=0;entryX=0;entryY=0.21666666666666667;entryDx=0;entryDy=3;entryPerimeter=0;endArrow=none;endFill=0;" edge="1" parent="1" source="qbABz30h0iUB20YgcGLr-13" target="qbABz30h0iUB20YgcGLr-9">
          <mxGeometry relative="1" as="geometry" />
        </mxCell>
        <mxCell id="qbABz30h0iUB20YgcGLr-15" value="sel" style="text;html=1;align=center;verticalAlign=middle;resizable=0;points=[];autosize=1;strokeColor=none;fillColor=none;" vertex="1" parent="1">
          <mxGeometry x="894" y="2016" width="40" height="30" as="geometry" />
        </mxCell>
        <mxCell id="qbABz30h0iUB20YgcGLr-16" value="Mux" style="shadow=0;dashed=0;align=center;html=1;strokeWidth=1;shape=mxgraph.electrical.abstract.mux2;whiteSpace=wrap;" vertex="1" parent="1">
          <mxGeometry x="774" y="2020" width="80" height="120" as="geometry" />
        </mxCell>
        <mxCell id="qbABz30h0iUB20YgcGLr-55" style="edgeStyle=orthogonalEdgeStyle;rounded=0;orthogonalLoop=1;jettySize=auto;html=1;exitX=0;exitY=0.65;exitDx=0;exitDy=3;exitPerimeter=0;startArrow=classic;startFill=1;endArrow=none;endFill=0;" edge="1" parent="1" source="qbABz30h0iUB20YgcGLr-17">
          <mxGeometry relative="1" as="geometry">
            <mxPoint x="674" y="1849" as="targetPoint" />
          </mxGeometry>
        </mxCell>
        <mxCell id="qbABz30h0iUB20YgcGLr-17" value="Mux" style="shadow=0;dashed=0;align=center;html=1;strokeWidth=1;shape=mxgraph.electrical.abstract.mux2;whiteSpace=wrap;" vertex="1" parent="1">
          <mxGeometry x="774" y="1768" width="80" height="120" as="geometry" />
        </mxCell>
        <mxCell id="qbABz30h0iUB20YgcGLr-21" style="edgeStyle=orthogonalEdgeStyle;rounded=0;orthogonalLoop=1;jettySize=auto;html=1;exitX=0.25;exitY=1;exitDx=0;exitDy=0;startArrow=classic;startFill=1;endArrow=none;endFill=0;" edge="1" parent="1" source="qbABz30h0iUB20YgcGLr-20">
          <mxGeometry relative="1" as="geometry">
            <mxPoint x="796.7777777777778" y="1980" as="targetPoint" />
          </mxGeometry>
        </mxCell>
        <mxCell id="qbABz30h0iUB20YgcGLr-22" style="edgeStyle=orthogonalEdgeStyle;rounded=0;orthogonalLoop=1;jettySize=auto;html=1;exitX=0.75;exitY=1;exitDx=0;exitDy=0;endArrow=none;endFill=0;startArrow=classic;startFill=1;" edge="1" parent="1" source="qbABz30h0iUB20YgcGLr-20">
          <mxGeometry relative="1" as="geometry">
            <mxPoint x="831.7777777777778" y="1980" as="targetPoint" />
          </mxGeometry>
        </mxCell>
        <mxCell id="qbABz30h0iUB20YgcGLr-20" value="8bit&lt;br&gt;a&amp;lt;b" style="rounded=1;whiteSpace=wrap;html=1;" vertex="1" parent="1">
          <mxGeometry x="779" y="1900" width="70" height="60" as="geometry" />
        </mxCell>
        <mxCell id="qbABz30h0iUB20YgcGLr-23" style="edgeStyle=orthogonalEdgeStyle;rounded=0;orthogonalLoop=1;jettySize=auto;html=1;exitX=0.5;exitY=0;exitDx=0;exitDy=0;entryX=0.375;entryY=1;entryDx=10;entryDy=0;entryPerimeter=0;" edge="1" parent="1" source="qbABz30h0iUB20YgcGLr-20" target="qbABz30h0iUB20YgcGLr-17">
          <mxGeometry relative="1" as="geometry" />
        </mxCell>
        <mxCell id="qbABz30h0iUB20YgcGLr-24" style="edgeStyle=orthogonalEdgeStyle;rounded=0;orthogonalLoop=1;jettySize=auto;html=1;exitX=0.25;exitY=1;exitDx=0;exitDy=0;startArrow=classic;startFill=1;endArrow=none;endFill=0;" edge="1" parent="1" source="qbABz30h0iUB20YgcGLr-26">
          <mxGeometry relative="1" as="geometry">
            <mxPoint x="749.7777777777778" y="2364" as="targetPoint" />
          </mxGeometry>
        </mxCell>
        <mxCell id="qbABz30h0iUB20YgcGLr-25" style="edgeStyle=orthogonalEdgeStyle;rounded=0;orthogonalLoop=1;jettySize=auto;html=1;exitX=0.75;exitY=1;exitDx=0;exitDy=0;endArrow=none;endFill=0;startArrow=classic;startFill=1;" edge="1" parent="1" source="qbABz30h0iUB20YgcGLr-26">
          <mxGeometry relative="1" as="geometry">
            <mxPoint x="784.7777777777778" y="2364" as="targetPoint" />
          </mxGeometry>
        </mxCell>
        <mxCell id="qbABz30h0iUB20YgcGLr-26" value="8bit&lt;br&gt;a&amp;lt;=b" style="rounded=1;whiteSpace=wrap;html=1;" vertex="1" parent="1">
          <mxGeometry x="732" y="2284" width="70" height="60" as="geometry" />
        </mxCell>
        <mxCell id="qbABz30h0iUB20YgcGLr-28" style="edgeStyle=orthogonalEdgeStyle;rounded=0;orthogonalLoop=1;jettySize=auto;html=1;exitX=0.25;exitY=1;exitDx=0;exitDy=0;startArrow=classic;startFill=1;endArrow=none;endFill=0;" edge="1" parent="1" source="qbABz30h0iUB20YgcGLr-30">
          <mxGeometry relative="1" as="geometry">
            <mxPoint x="831.7777777777778" y="2364" as="targetPoint" />
          </mxGeometry>
        </mxCell>
        <mxCell id="qbABz30h0iUB20YgcGLr-29" style="edgeStyle=orthogonalEdgeStyle;rounded=0;orthogonalLoop=1;jettySize=auto;html=1;exitX=0.75;exitY=1;exitDx=0;exitDy=0;endArrow=none;endFill=0;startArrow=classic;startFill=1;" edge="1" parent="1" source="qbABz30h0iUB20YgcGLr-30">
          <mxGeometry relative="1" as="geometry">
            <mxPoint x="866.7777777777778" y="2364" as="targetPoint" />
          </mxGeometry>
        </mxCell>
        <mxCell id="qbABz30h0iUB20YgcGLr-30" value="8bit&lt;br&gt;a&amp;gt;b" style="rounded=1;whiteSpace=wrap;html=1;" vertex="1" parent="1">
          <mxGeometry x="814" y="2284" width="70" height="60" as="geometry" />
        </mxCell>
        <mxCell id="qbABz30h0iUB20YgcGLr-32" style="edgeStyle=orthogonalEdgeStyle;rounded=0;orthogonalLoop=1;jettySize=auto;html=1;exitX=0.25;exitY=1;exitDx=0;exitDy=0;startArrow=classic;startFill=1;endArrow=none;endFill=0;" edge="1" parent="1" source="qbABz30h0iUB20YgcGLr-34">
          <mxGeometry relative="1" as="geometry">
            <mxPoint x="915.7777777777778" y="2364" as="targetPoint" />
          </mxGeometry>
        </mxCell>
        <mxCell id="qbABz30h0iUB20YgcGLr-33" style="edgeStyle=orthogonalEdgeStyle;rounded=0;orthogonalLoop=1;jettySize=auto;html=1;exitX=0.75;exitY=1;exitDx=0;exitDy=0;endArrow=none;endFill=0;startArrow=classic;startFill=1;" edge="1" parent="1" source="qbABz30h0iUB20YgcGLr-34">
          <mxGeometry relative="1" as="geometry">
            <mxPoint x="950.7777777777778" y="2364" as="targetPoint" />
          </mxGeometry>
        </mxCell>
        <mxCell id="qbABz30h0iUB20YgcGLr-34" value="8bit&lt;br&gt;a==b" style="rounded=1;whiteSpace=wrap;html=1;" vertex="1" parent="1">
          <mxGeometry x="898" y="2284" width="70" height="60" as="geometry" />
        </mxCell>
        <mxCell id="qbABz30h0iUB20YgcGLr-36" value="" style="verticalLabelPosition=bottom;shadow=0;dashed=0;align=center;html=1;verticalAlign=top;shape=mxgraph.electrical.logic_gates.logic_gate;operation=and;rotation=-90;" vertex="1" parent="1">
          <mxGeometry x="784" y="2217" width="48" height="23" as="geometry" />
        </mxCell>
        <mxCell id="qbABz30h0iUB20YgcGLr-39" style="edgeStyle=orthogonalEdgeStyle;rounded=0;orthogonalLoop=1;jettySize=auto;html=1;exitX=0.5;exitY=0;exitDx=0;exitDy=0;entryX=0;entryY=0.25;entryDx=0;entryDy=0;entryPerimeter=0;" edge="1" parent="1" source="qbABz30h0iUB20YgcGLr-26" target="qbABz30h0iUB20YgcGLr-36">
          <mxGeometry relative="1" as="geometry" />
        </mxCell>
        <mxCell id="qbABz30h0iUB20YgcGLr-40" style="edgeStyle=orthogonalEdgeStyle;rounded=0;orthogonalLoop=1;jettySize=auto;html=1;exitX=0.5;exitY=0;exitDx=0;exitDy=0;entryX=0;entryY=0.75;entryDx=0;entryDy=0;entryPerimeter=0;" edge="1" parent="1" source="qbABz30h0iUB20YgcGLr-30" target="qbABz30h0iUB20YgcGLr-36">
          <mxGeometry relative="1" as="geometry" />
        </mxCell>
        <mxCell id="qbABz30h0iUB20YgcGLr-41" value="" style="verticalLabelPosition=bottom;shadow=0;dashed=0;align=center;html=1;verticalAlign=top;shape=mxgraph.electrical.logic_gates.logic_gate;operation=or;rotation=-90;" vertex="1" parent="1">
          <mxGeometry x="791.5" y="2173" width="44" height="22" as="geometry" />
        </mxCell>
        <mxCell id="qbABz30h0iUB20YgcGLr-43" style="edgeStyle=orthogonalEdgeStyle;rounded=0;orthogonalLoop=1;jettySize=auto;html=1;exitX=0.5;exitY=0;exitDx=0;exitDy=0;entryX=0;entryY=0.75;entryDx=0;entryDy=0;entryPerimeter=0;" edge="1" parent="1" source="qbABz30h0iUB20YgcGLr-34" target="qbABz30h0iUB20YgcGLr-41">
          <mxGeometry relative="1" as="geometry">
            <Array as="points">
              <mxPoint x="933" y="2217" />
              <mxPoint x="819" y="2217" />
            </Array>
          </mxGeometry>
        </mxCell>
        <mxCell id="qbABz30h0iUB20YgcGLr-44" style="edgeStyle=orthogonalEdgeStyle;rounded=0;orthogonalLoop=1;jettySize=auto;html=1;exitX=0.375;exitY=1;exitDx=10;exitDy=0;exitPerimeter=0;entryX=1;entryY=0.5;entryDx=0;entryDy=0;entryPerimeter=0;startArrow=none;startFill=0;endArrow=none;endFill=0;" edge="1" parent="1" source="qbABz30h0iUB20YgcGLr-16" target="qbABz30h0iUB20YgcGLr-41">
          <mxGeometry relative="1" as="geometry" />
        </mxCell>
        <mxCell id="qbABz30h0iUB20YgcGLr-45" style="edgeStyle=orthogonalEdgeStyle;rounded=0;orthogonalLoop=1;jettySize=auto;html=1;exitX=1;exitY=0.5;exitDx=0;exitDy=-5;exitPerimeter=0;entryX=0;entryY=0.21666666666666667;entryDx=0;entryDy=3;entryPerimeter=0;endArrow=none;endFill=0;" edge="1" parent="1" source="qbABz30h0iUB20YgcGLr-17" target="qbABz30h0iUB20YgcGLr-13">
          <mxGeometry relative="1" as="geometry">
            <Array as="points">
              <mxPoint x="864" y="1823" />
              <mxPoint x="864" y="1929" />
            </Array>
          </mxGeometry>
        </mxCell>
        <mxCell id="qbABz30h0iUB20YgcGLr-46" style="edgeStyle=orthogonalEdgeStyle;rounded=0;orthogonalLoop=1;jettySize=auto;html=1;exitX=1;exitY=0.5;exitDx=0;exitDy=-5;exitPerimeter=0;entryX=0;entryY=0.65;entryDx=0;entryDy=3;entryPerimeter=0;endArrow=none;endFill=0;" edge="1" parent="1" source="qbABz30h0iUB20YgcGLr-16" target="qbABz30h0iUB20YgcGLr-13">
          <mxGeometry relative="1" as="geometry">
            <Array as="points">
              <mxPoint x="864" y="2075" />
              <mxPoint x="864" y="1981" />
            </Array>
          </mxGeometry>
        </mxCell>
        <mxCell id="qbABz30h0iUB20YgcGLr-47" style="edgeStyle=orthogonalEdgeStyle;rounded=0;orthogonalLoop=1;jettySize=auto;html=1;exitX=0;exitY=0.65;exitDx=0;exitDy=3;exitPerimeter=0;entryX=1;entryY=0.25;entryDx=0;entryDy=0;entryPerimeter=0;startArrow=classic;startFill=1;endArrow=none;endFill=0;" edge="1" parent="1" source="qbABz30h0iUB20YgcGLr-16" target="qbABz30h0iUB20YgcGLr-3">
          <mxGeometry relative="1" as="geometry">
            <Array as="points">
              <mxPoint x="674" y="2101" />
              <mxPoint x="674" y="1748" />
              <mxPoint x="1227" y="1748" />
              <mxPoint x="1227" y="1981" />
            </Array>
          </mxGeometry>
        </mxCell>
        <mxCell id="qbABz30h0iUB20YgcGLr-53" style="edgeStyle=orthogonalEdgeStyle;rounded=0;orthogonalLoop=1;jettySize=auto;html=1;exitX=0;exitY=0.5;exitDx=0;exitDy=0;endArrow=none;endFill=0;startArrow=classic;startFill=1;" edge="1" parent="1" source="qbABz30h0iUB20YgcGLr-49">
          <mxGeometry relative="1" as="geometry">
            <mxPoint x="674" y="1796.878787878788" as="targetPoint" />
          </mxGeometry>
        </mxCell>
        <mxCell id="qbABz30h0iUB20YgcGLr-49" value="8bit&lt;br&gt;+1" style="rounded=1;whiteSpace=wrap;html=1;" vertex="1" parent="1">
          <mxGeometry x="704" y="1777" width="40" height="40" as="geometry" />
        </mxCell>
        <mxCell id="qbABz30h0iUB20YgcGLr-50" style="edgeStyle=orthogonalEdgeStyle;rounded=0;orthogonalLoop=1;jettySize=auto;html=1;exitX=1;exitY=0.5;exitDx=0;exitDy=0;entryX=0;entryY=0.21666666666666667;entryDx=0;entryDy=3;entryPerimeter=0;endArrow=classic;endFill=1;" edge="1" parent="1" source="qbABz30h0iUB20YgcGLr-49" target="qbABz30h0iUB20YgcGLr-17">
          <mxGeometry relative="1" as="geometry" />
        </mxCell>
        <mxCell id="qbABz30h0iUB20YgcGLr-54" style="edgeStyle=orthogonalEdgeStyle;rounded=0;orthogonalLoop=1;jettySize=auto;html=1;exitX=0;exitY=0.5;exitDx=0;exitDy=0;startArrow=classic;startFill=1;endArrow=none;endFill=0;" edge="1" parent="1" source="qbABz30h0iUB20YgcGLr-51">
          <mxGeometry relative="1" as="geometry">
            <mxPoint x="674" y="2049" as="targetPoint" />
          </mxGeometry>
        </mxCell>
        <mxCell id="qbABz30h0iUB20YgcGLr-51" value="8bit&lt;br&gt;+1" style="rounded=1;whiteSpace=wrap;html=1;" vertex="1" parent="1">
          <mxGeometry x="704" y="2029" width="40" height="40" as="geometry" />
        </mxCell>
        <mxCell id="qbABz30h0iUB20YgcGLr-52" style="edgeStyle=orthogonalEdgeStyle;rounded=0;orthogonalLoop=1;jettySize=auto;html=1;exitX=1;exitY=0.5;exitDx=0;exitDy=0;entryX=0;entryY=0.21666666666666667;entryDx=0;entryDy=3;entryPerimeter=0;endArrow=classic;endFill=1;" edge="1" parent="1" source="qbABz30h0iUB20YgcGLr-51">
          <mxGeometry relative="1" as="geometry">
            <mxPoint x="774" y="2049" as="targetPoint" />
          </mxGeometry>
        </mxCell>
        <mxCell id="qbABz30h0iUB20YgcGLr-56" value="&lt;font style=&quot;font-size: 8px;&quot;&gt;ibeat&lt;/font&gt;" style="text;html=1;align=center;verticalAlign=middle;resizable=0;points=[];autosize=1;strokeColor=none;fillColor=none;" vertex="1" parent="1">
          <mxGeometry x="774" y="1976" width="40" height="30" as="geometry" />
        </mxCell>
        <mxCell id="qbABz30h0iUB20YgcGLr-57" value="&lt;font style=&quot;font-size: 8px;&quot;&gt;BEATLEAGTH&lt;/font&gt;" style="text;html=1;align=center;verticalAlign=middle;resizable=0;points=[];autosize=1;strokeColor=none;fillColor=none;" vertex="1" parent="1">
          <mxGeometry x="792" y="1976" width="80" height="30" as="geometry" />
        </mxCell>
        <mxCell id="qbABz30h0iUB20YgcGLr-58" value="&lt;font style=&quot;font-size: 10px;&quot;&gt;8&#39;d28&lt;/font&gt;" style="text;html=1;align=center;verticalAlign=middle;resizable=0;points=[];autosize=1;strokeColor=none;fillColor=none;" vertex="1" parent="1">
          <mxGeometry x="927" y="2357" width="50" height="30" as="geometry" />
        </mxCell>
        <mxCell id="qbABz30h0iUB20YgcGLr-59" value="&lt;font style=&quot;font-size: 10px;&quot;&gt;8&#39;d0&lt;/font&gt;" style="text;html=1;align=center;verticalAlign=middle;resizable=0;points=[];autosize=1;strokeColor=none;fillColor=none;" vertex="1" parent="1">
          <mxGeometry x="849" y="2357" width="40" height="30" as="geometry" />
        </mxCell>
        <mxCell id="qbABz30h0iUB20YgcGLr-60" value="&lt;font style=&quot;font-size: 8px;&quot;&gt;BEATLEAGTH&lt;/font&gt;" style="text;html=1;align=center;verticalAlign=middle;resizable=0;points=[];autosize=1;strokeColor=none;fillColor=none;" vertex="1" parent="1">
          <mxGeometry x="752" y="2357" width="80" height="30" as="geometry" />
        </mxCell>
        <mxCell id="qbABz30h0iUB20YgcGLr-61" value="&lt;font style=&quot;font-size: 8px;&quot;&gt;ibeat&lt;/font&gt;" style="text;html=1;align=center;verticalAlign=middle;resizable=0;points=[];autosize=1;strokeColor=none;fillColor=none;" vertex="1" parent="1">
          <mxGeometry x="729" y="2357" width="40" height="30" as="geometry" />
        </mxCell>
        <mxCell id="qbABz30h0iUB20YgcGLr-62" value="&lt;font style=&quot;font-size: 8px;&quot;&gt;ibeat&lt;/font&gt;" style="text;html=1;align=center;verticalAlign=middle;resizable=0;points=[];autosize=1;strokeColor=none;fillColor=none;" vertex="1" parent="1">
          <mxGeometry x="812" y="2357" width="40" height="30" as="geometry" />
        </mxCell>
        <mxCell id="qbABz30h0iUB20YgcGLr-63" value="&lt;font style=&quot;font-size: 8px;&quot;&gt;ibeat&lt;/font&gt;" style="text;html=1;align=center;verticalAlign=middle;resizable=0;points=[];autosize=1;strokeColor=none;fillColor=none;" vertex="1" parent="1">
          <mxGeometry x="898" y="2357" width="40" height="30" as="geometry" />
        </mxCell>
        <mxCell id="qbABz30h0iUB20YgcGLr-69" value="" style="group" vertex="1" connectable="0" parent="1">
          <mxGeometry x="770" y="1958" width="46" height="31" as="geometry" />
        </mxCell>
        <mxCell id="qbABz30h0iUB20YgcGLr-70" value="" style="group" vertex="1" connectable="0" parent="qbABz30h0iUB20YgcGLr-69">
          <mxGeometry width="40" height="21" as="geometry" />
        </mxCell>
        <mxCell id="qbABz30h0iUB20YgcGLr-71" value="" style="endArrow=none;html=1;rounded=0;" edge="1" parent="qbABz30h0iUB20YgcGLr-70">
          <mxGeometry width="50" height="50" relative="1" as="geometry">
            <mxPoint x="21" y="21" as="sourcePoint" />
            <mxPoint x="31" y="11" as="targetPoint" />
          </mxGeometry>
        </mxCell>
        <mxCell id="qbABz30h0iUB20YgcGLr-72" value="&lt;font style=&quot;font-size: 8px;&quot;&gt;8&lt;/font&gt;" style="text;html=1;align=center;verticalAlign=middle;resizable=0;points=[];autosize=1;strokeColor=none;fillColor=none;" vertex="1" parent="qbABz30h0iUB20YgcGLr-69">
          <mxGeometry x="16" y="1" width="30" height="30" as="geometry" />
        </mxCell>
        <mxCell id="qbABz30h0iUB20YgcGLr-73" value="" style="group" vertex="1" connectable="0" parent="1">
          <mxGeometry x="805" y="1958" width="46" height="31" as="geometry" />
        </mxCell>
        <mxCell id="qbABz30h0iUB20YgcGLr-74" value="" style="group" vertex="1" connectable="0" parent="qbABz30h0iUB20YgcGLr-73">
          <mxGeometry width="40" height="21" as="geometry" />
        </mxCell>
        <mxCell id="qbABz30h0iUB20YgcGLr-75" value="" style="endArrow=none;html=1;rounded=0;" edge="1" parent="qbABz30h0iUB20YgcGLr-74">
          <mxGeometry width="50" height="50" relative="1" as="geometry">
            <mxPoint x="21" y="21" as="sourcePoint" />
            <mxPoint x="31" y="11" as="targetPoint" />
          </mxGeometry>
        </mxCell>
        <mxCell id="qbABz30h0iUB20YgcGLr-76" value="&lt;font style=&quot;font-size: 8px;&quot;&gt;8&lt;/font&gt;" style="text;html=1;align=center;verticalAlign=middle;resizable=0;points=[];autosize=1;strokeColor=none;fillColor=none;" vertex="1" parent="qbABz30h0iUB20YgcGLr-73">
          <mxGeometry x="16" y="1" width="30" height="30" as="geometry" />
        </mxCell>
        <mxCell id="qbABz30h0iUB20YgcGLr-77" value="" style="group" vertex="1" connectable="0" parent="1">
          <mxGeometry x="703" y="1834" width="56" height="36" as="geometry" />
        </mxCell>
        <mxCell id="qbABz30h0iUB20YgcGLr-78" value="" style="group" vertex="1" connectable="0" parent="qbABz30h0iUB20YgcGLr-77">
          <mxGeometry width="40" height="25.5" as="geometry" />
        </mxCell>
        <mxCell id="qbABz30h0iUB20YgcGLr-79" value="" style="endArrow=none;html=1;rounded=0;" edge="1" parent="qbABz30h0iUB20YgcGLr-78">
          <mxGeometry width="50" height="50" relative="1" as="geometry">
            <mxPoint x="21" y="21" as="sourcePoint" />
            <mxPoint x="31" y="11" as="targetPoint" />
          </mxGeometry>
        </mxCell>
        <mxCell id="qbABz30h0iUB20YgcGLr-81" value="&lt;font style=&quot;font-size: 8px;&quot;&gt;8&lt;/font&gt;" style="text;html=1;align=center;verticalAlign=middle;resizable=0;points=[];autosize=1;strokeColor=none;fillColor=none;" vertex="1" parent="qbABz30h0iUB20YgcGLr-78">
          <mxGeometry x="10" y="-6.5" width="30" height="30" as="geometry" />
        </mxCell>
        <mxCell id="qbABz30h0iUB20YgcGLr-82" value="" style="group" vertex="1" connectable="0" parent="1">
          <mxGeometry x="658" y="1781" width="56" height="36" as="geometry" />
        </mxCell>
        <mxCell id="qbABz30h0iUB20YgcGLr-83" value="" style="group" vertex="1" connectable="0" parent="qbABz30h0iUB20YgcGLr-82">
          <mxGeometry width="40" height="25.5" as="geometry" />
        </mxCell>
        <mxCell id="qbABz30h0iUB20YgcGLr-84" value="" style="endArrow=none;html=1;rounded=0;" edge="1" parent="qbABz30h0iUB20YgcGLr-83">
          <mxGeometry width="50" height="50" relative="1" as="geometry">
            <mxPoint x="21" y="21" as="sourcePoint" />
            <mxPoint x="31" y="11" as="targetPoint" />
          </mxGeometry>
        </mxCell>
        <mxCell id="qbABz30h0iUB20YgcGLr-85" value="&lt;font style=&quot;font-size: 8px;&quot;&gt;8&lt;/font&gt;" style="text;html=1;align=center;verticalAlign=middle;resizable=0;points=[];autosize=1;strokeColor=none;fillColor=none;" vertex="1" parent="qbABz30h0iUB20YgcGLr-83">
          <mxGeometry x="10" y="-6.5" width="30" height="30" as="geometry" />
        </mxCell>
        <mxCell id="qbABz30h0iUB20YgcGLr-86" value="" style="group" vertex="1" connectable="0" parent="1">
          <mxGeometry x="730" y="1781" width="56" height="36" as="geometry" />
        </mxCell>
        <mxCell id="qbABz30h0iUB20YgcGLr-87" value="" style="group" vertex="1" connectable="0" parent="qbABz30h0iUB20YgcGLr-86">
          <mxGeometry width="40" height="25.5" as="geometry" />
        </mxCell>
        <mxCell id="qbABz30h0iUB20YgcGLr-88" value="" style="endArrow=none;html=1;rounded=0;" edge="1" parent="qbABz30h0iUB20YgcGLr-87">
          <mxGeometry width="50" height="50" relative="1" as="geometry">
            <mxPoint x="21" y="21" as="sourcePoint" />
            <mxPoint x="31" y="11" as="targetPoint" />
          </mxGeometry>
        </mxCell>
        <mxCell id="qbABz30h0iUB20YgcGLr-89" value="&lt;font style=&quot;font-size: 8px;&quot;&gt;8&lt;/font&gt;" style="text;html=1;align=center;verticalAlign=middle;resizable=0;points=[];autosize=1;strokeColor=none;fillColor=none;" vertex="1" parent="qbABz30h0iUB20YgcGLr-87">
          <mxGeometry x="10" y="-6.5" width="30" height="30" as="geometry" />
        </mxCell>
        <mxCell id="qbABz30h0iUB20YgcGLr-90" value="" style="group" vertex="1" connectable="0" parent="1">
          <mxGeometry x="828" y="1806.5" width="56" height="36" as="geometry" />
        </mxCell>
        <mxCell id="qbABz30h0iUB20YgcGLr-91" value="" style="group" vertex="1" connectable="0" parent="qbABz30h0iUB20YgcGLr-90">
          <mxGeometry width="40" height="25.5" as="geometry" />
        </mxCell>
        <mxCell id="qbABz30h0iUB20YgcGLr-92" value="" style="endArrow=none;html=1;rounded=0;" edge="1" parent="qbABz30h0iUB20YgcGLr-91">
          <mxGeometry width="50" height="50" relative="1" as="geometry">
            <mxPoint x="21" y="21" as="sourcePoint" />
            <mxPoint x="31" y="11" as="targetPoint" />
          </mxGeometry>
        </mxCell>
        <mxCell id="qbABz30h0iUB20YgcGLr-93" value="&lt;font style=&quot;font-size: 8px;&quot;&gt;8&lt;/font&gt;" style="text;html=1;align=center;verticalAlign=middle;resizable=0;points=[];autosize=1;strokeColor=none;fillColor=none;" vertex="1" parent="qbABz30h0iUB20YgcGLr-91">
          <mxGeometry x="10" y="-6.5" width="30" height="30" as="geometry" />
        </mxCell>
        <mxCell id="qbABz30h0iUB20YgcGLr-94" value="" style="group" vertex="1" connectable="0" parent="1">
          <mxGeometry x="828" y="2060" width="56" height="36" as="geometry" />
        </mxCell>
        <mxCell id="qbABz30h0iUB20YgcGLr-95" value="" style="group" vertex="1" connectable="0" parent="qbABz30h0iUB20YgcGLr-94">
          <mxGeometry width="40" height="25.5" as="geometry" />
        </mxCell>
        <mxCell id="qbABz30h0iUB20YgcGLr-96" value="" style="endArrow=none;html=1;rounded=0;" edge="1" parent="qbABz30h0iUB20YgcGLr-95">
          <mxGeometry width="50" height="50" relative="1" as="geometry">
            <mxPoint x="21" y="21" as="sourcePoint" />
            <mxPoint x="31" y="11" as="targetPoint" />
          </mxGeometry>
        </mxCell>
        <mxCell id="qbABz30h0iUB20YgcGLr-97" value="&lt;font style=&quot;font-size: 8px;&quot;&gt;8&lt;/font&gt;" style="text;html=1;align=center;verticalAlign=middle;resizable=0;points=[];autosize=1;strokeColor=none;fillColor=none;" vertex="1" parent="qbABz30h0iUB20YgcGLr-95">
          <mxGeometry x="10" y="-6.5" width="30" height="30" as="geometry" />
        </mxCell>
        <mxCell id="qbABz30h0iUB20YgcGLr-98" value="" style="group" vertex="1" connectable="0" parent="1">
          <mxGeometry x="729" y="2033" width="56" height="36" as="geometry" />
        </mxCell>
        <mxCell id="qbABz30h0iUB20YgcGLr-99" value="" style="group" vertex="1" connectable="0" parent="qbABz30h0iUB20YgcGLr-98">
          <mxGeometry width="40" height="25.5" as="geometry" />
        </mxCell>
        <mxCell id="qbABz30h0iUB20YgcGLr-100" value="" style="endArrow=none;html=1;rounded=0;" edge="1" parent="qbABz30h0iUB20YgcGLr-99">
          <mxGeometry width="50" height="50" relative="1" as="geometry">
            <mxPoint x="21" y="21" as="sourcePoint" />
            <mxPoint x="31" y="11" as="targetPoint" />
          </mxGeometry>
        </mxCell>
        <mxCell id="qbABz30h0iUB20YgcGLr-101" value="&lt;font style=&quot;font-size: 8px;&quot;&gt;8&lt;/font&gt;" style="text;html=1;align=center;verticalAlign=middle;resizable=0;points=[];autosize=1;strokeColor=none;fillColor=none;" vertex="1" parent="qbABz30h0iUB20YgcGLr-99">
          <mxGeometry x="10" y="-6.5" width="30" height="30" as="geometry" />
        </mxCell>
        <mxCell id="qbABz30h0iUB20YgcGLr-102" value="" style="group" vertex="1" connectable="0" parent="1">
          <mxGeometry x="661" y="2033" width="56" height="36" as="geometry" />
        </mxCell>
        <mxCell id="qbABz30h0iUB20YgcGLr-103" value="" style="group" vertex="1" connectable="0" parent="qbABz30h0iUB20YgcGLr-102">
          <mxGeometry width="40" height="25.5" as="geometry" />
        </mxCell>
        <mxCell id="qbABz30h0iUB20YgcGLr-104" value="" style="endArrow=none;html=1;rounded=0;" edge="1" parent="qbABz30h0iUB20YgcGLr-103">
          <mxGeometry width="50" height="50" relative="1" as="geometry">
            <mxPoint x="21" y="21" as="sourcePoint" />
            <mxPoint x="31" y="11" as="targetPoint" />
          </mxGeometry>
        </mxCell>
        <mxCell id="qbABz30h0iUB20YgcGLr-105" value="&lt;font style=&quot;font-size: 8px;&quot;&gt;8&lt;/font&gt;" style="text;html=1;align=center;verticalAlign=middle;resizable=0;points=[];autosize=1;strokeColor=none;fillColor=none;" vertex="1" parent="qbABz30h0iUB20YgcGLr-103">
          <mxGeometry x="10" y="-6.5" width="30" height="30" as="geometry" />
        </mxCell>
        <mxCell id="qbABz30h0iUB20YgcGLr-106" value="" style="group" vertex="1" connectable="0" parent="1">
          <mxGeometry x="698" y="2085" width="56" height="36" as="geometry" />
        </mxCell>
        <mxCell id="qbABz30h0iUB20YgcGLr-107" value="" style="group" vertex="1" connectable="0" parent="qbABz30h0iUB20YgcGLr-106">
          <mxGeometry width="40" height="25.5" as="geometry" />
        </mxCell>
        <mxCell id="qbABz30h0iUB20YgcGLr-108" value="" style="endArrow=none;html=1;rounded=0;" edge="1" parent="qbABz30h0iUB20YgcGLr-107">
          <mxGeometry width="50" height="50" relative="1" as="geometry">
            <mxPoint x="21" y="21" as="sourcePoint" />
            <mxPoint x="31" y="11" as="targetPoint" />
          </mxGeometry>
        </mxCell>
        <mxCell id="qbABz30h0iUB20YgcGLr-109" value="&lt;font style=&quot;font-size: 8px;&quot;&gt;8&lt;/font&gt;" style="text;html=1;align=center;verticalAlign=middle;resizable=0;points=[];autosize=1;strokeColor=none;fillColor=none;" vertex="1" parent="qbABz30h0iUB20YgcGLr-107">
          <mxGeometry x="10" y="-6.5" width="30" height="30" as="geometry" />
        </mxCell>
        <mxCell id="qbABz30h0iUB20YgcGLr-114" value="" style="group" vertex="1" connectable="0" parent="1">
          <mxGeometry x="723" y="2342" width="46" height="31" as="geometry" />
        </mxCell>
        <mxCell id="qbABz30h0iUB20YgcGLr-115" value="" style="group" vertex="1" connectable="0" parent="qbABz30h0iUB20YgcGLr-114">
          <mxGeometry width="40" height="21" as="geometry" />
        </mxCell>
        <mxCell id="qbABz30h0iUB20YgcGLr-116" value="" style="endArrow=none;html=1;rounded=0;" edge="1" parent="qbABz30h0iUB20YgcGLr-115">
          <mxGeometry width="50" height="50" relative="1" as="geometry">
            <mxPoint x="21" y="21" as="sourcePoint" />
            <mxPoint x="31" y="11" as="targetPoint" />
          </mxGeometry>
        </mxCell>
        <mxCell id="qbABz30h0iUB20YgcGLr-117" value="&lt;font style=&quot;font-size: 8px;&quot;&gt;8&lt;/font&gt;" style="text;html=1;align=center;verticalAlign=middle;resizable=0;points=[];autosize=1;strokeColor=none;fillColor=none;" vertex="1" parent="qbABz30h0iUB20YgcGLr-114">
          <mxGeometry x="16" y="1" width="30" height="30" as="geometry" />
        </mxCell>
        <mxCell id="qbABz30h0iUB20YgcGLr-118" value="" style="group" vertex="1" connectable="0" parent="1">
          <mxGeometry x="758" y="2342" width="46" height="31" as="geometry" />
        </mxCell>
        <mxCell id="qbABz30h0iUB20YgcGLr-119" value="" style="group" vertex="1" connectable="0" parent="qbABz30h0iUB20YgcGLr-118">
          <mxGeometry width="40" height="21" as="geometry" />
        </mxCell>
        <mxCell id="qbABz30h0iUB20YgcGLr-120" value="" style="endArrow=none;html=1;rounded=0;" edge="1" parent="qbABz30h0iUB20YgcGLr-119">
          <mxGeometry width="50" height="50" relative="1" as="geometry">
            <mxPoint x="21" y="21" as="sourcePoint" />
            <mxPoint x="31" y="11" as="targetPoint" />
          </mxGeometry>
        </mxCell>
        <mxCell id="qbABz30h0iUB20YgcGLr-121" value="&lt;font style=&quot;font-size: 8px;&quot;&gt;8&lt;/font&gt;" style="text;html=1;align=center;verticalAlign=middle;resizable=0;points=[];autosize=1;strokeColor=none;fillColor=none;" vertex="1" parent="qbABz30h0iUB20YgcGLr-118">
          <mxGeometry x="16" y="1" width="30" height="30" as="geometry" />
        </mxCell>
        <mxCell id="qbABz30h0iUB20YgcGLr-122" value="" style="group" vertex="1" connectable="0" parent="1">
          <mxGeometry x="805" y="2341" width="46" height="31" as="geometry" />
        </mxCell>
        <mxCell id="qbABz30h0iUB20YgcGLr-123" value="" style="group" vertex="1" connectable="0" parent="qbABz30h0iUB20YgcGLr-122">
          <mxGeometry width="40" height="21" as="geometry" />
        </mxCell>
        <mxCell id="qbABz30h0iUB20YgcGLr-124" value="" style="endArrow=none;html=1;rounded=0;" edge="1" parent="qbABz30h0iUB20YgcGLr-123">
          <mxGeometry width="50" height="50" relative="1" as="geometry">
            <mxPoint x="21" y="21" as="sourcePoint" />
            <mxPoint x="31" y="11" as="targetPoint" />
          </mxGeometry>
        </mxCell>
        <mxCell id="qbABz30h0iUB20YgcGLr-125" value="&lt;font style=&quot;font-size: 8px;&quot;&gt;8&lt;/font&gt;" style="text;html=1;align=center;verticalAlign=middle;resizable=0;points=[];autosize=1;strokeColor=none;fillColor=none;" vertex="1" parent="qbABz30h0iUB20YgcGLr-122">
          <mxGeometry x="16" y="1" width="30" height="30" as="geometry" />
        </mxCell>
        <mxCell id="qbABz30h0iUB20YgcGLr-126" value="" style="group" vertex="1" connectable="0" parent="1">
          <mxGeometry x="840" y="2342" width="46" height="31" as="geometry" />
        </mxCell>
        <mxCell id="qbABz30h0iUB20YgcGLr-127" value="" style="group" vertex="1" connectable="0" parent="qbABz30h0iUB20YgcGLr-126">
          <mxGeometry width="40" height="21" as="geometry" />
        </mxCell>
        <mxCell id="qbABz30h0iUB20YgcGLr-128" value="" style="endArrow=none;html=1;rounded=0;" edge="1" parent="qbABz30h0iUB20YgcGLr-127">
          <mxGeometry width="50" height="50" relative="1" as="geometry">
            <mxPoint x="21" y="21" as="sourcePoint" />
            <mxPoint x="31" y="11" as="targetPoint" />
          </mxGeometry>
        </mxCell>
        <mxCell id="qbABz30h0iUB20YgcGLr-129" value="&lt;font style=&quot;font-size: 8px;&quot;&gt;8&lt;/font&gt;" style="text;html=1;align=center;verticalAlign=middle;resizable=0;points=[];autosize=1;strokeColor=none;fillColor=none;" vertex="1" parent="qbABz30h0iUB20YgcGLr-126">
          <mxGeometry x="16" y="1" width="30" height="30" as="geometry" />
        </mxCell>
        <mxCell id="qbABz30h0iUB20YgcGLr-130" value="" style="group" vertex="1" connectable="0" parent="1">
          <mxGeometry x="889" y="2342" width="46" height="31" as="geometry" />
        </mxCell>
        <mxCell id="qbABz30h0iUB20YgcGLr-131" value="" style="group" vertex="1" connectable="0" parent="qbABz30h0iUB20YgcGLr-130">
          <mxGeometry width="40" height="21" as="geometry" />
        </mxCell>
        <mxCell id="qbABz30h0iUB20YgcGLr-132" value="" style="endArrow=none;html=1;rounded=0;" edge="1" parent="qbABz30h0iUB20YgcGLr-131">
          <mxGeometry width="50" height="50" relative="1" as="geometry">
            <mxPoint x="21" y="21" as="sourcePoint" />
            <mxPoint x="31" y="11" as="targetPoint" />
          </mxGeometry>
        </mxCell>
        <mxCell id="qbABz30h0iUB20YgcGLr-133" value="&lt;font style=&quot;font-size: 8px;&quot;&gt;8&lt;/font&gt;" style="text;html=1;align=center;verticalAlign=middle;resizable=0;points=[];autosize=1;strokeColor=none;fillColor=none;" vertex="1" parent="qbABz30h0iUB20YgcGLr-130">
          <mxGeometry x="16" y="1" width="30" height="30" as="geometry" />
        </mxCell>
        <mxCell id="qbABz30h0iUB20YgcGLr-134" value="" style="group" vertex="1" connectable="0" parent="1">
          <mxGeometry x="924" y="2342" width="46" height="31" as="geometry" />
        </mxCell>
        <mxCell id="qbABz30h0iUB20YgcGLr-135" value="" style="group" vertex="1" connectable="0" parent="qbABz30h0iUB20YgcGLr-134">
          <mxGeometry width="40" height="21" as="geometry" />
        </mxCell>
        <mxCell id="qbABz30h0iUB20YgcGLr-136" value="" style="endArrow=none;html=1;rounded=0;" edge="1" parent="qbABz30h0iUB20YgcGLr-135">
          <mxGeometry width="50" height="50" relative="1" as="geometry">
            <mxPoint x="21" y="21" as="sourcePoint" />
            <mxPoint x="31" y="11" as="targetPoint" />
          </mxGeometry>
        </mxCell>
        <mxCell id="qbABz30h0iUB20YgcGLr-137" value="&lt;font style=&quot;font-size: 8px;&quot;&gt;8&lt;/font&gt;" style="text;html=1;align=center;verticalAlign=middle;resizable=0;points=[];autosize=1;strokeColor=none;fillColor=none;" vertex="1" parent="qbABz30h0iUB20YgcGLr-134">
          <mxGeometry x="16" y="1" width="30" height="30" as="geometry" />
        </mxCell>
        <mxCell id="qbABz30h0iUB20YgcGLr-142" value="" style="group" vertex="1" connectable="0" parent="1">
          <mxGeometry x="979" y="1939" width="56" height="36" as="geometry" />
        </mxCell>
        <mxCell id="qbABz30h0iUB20YgcGLr-143" value="" style="group" vertex="1" connectable="0" parent="qbABz30h0iUB20YgcGLr-142">
          <mxGeometry width="40" height="25.5" as="geometry" />
        </mxCell>
        <mxCell id="qbABz30h0iUB20YgcGLr-144" value="" style="endArrow=none;html=1;rounded=0;" edge="1" parent="qbABz30h0iUB20YgcGLr-143">
          <mxGeometry width="50" height="50" relative="1" as="geometry">
            <mxPoint x="21" y="21" as="sourcePoint" />
            <mxPoint x="31" y="11" as="targetPoint" />
          </mxGeometry>
        </mxCell>
        <mxCell id="qbABz30h0iUB20YgcGLr-145" value="&lt;font style=&quot;font-size: 8px;&quot;&gt;8&lt;/font&gt;" style="text;html=1;align=center;verticalAlign=middle;resizable=0;points=[];autosize=1;strokeColor=none;fillColor=none;" vertex="1" parent="qbABz30h0iUB20YgcGLr-143">
          <mxGeometry x="10" y="-6.5" width="30" height="30" as="geometry" />
        </mxCell>
        <mxCell id="qbABz30h0iUB20YgcGLr-146" value="" style="group" vertex="1" connectable="0" parent="1">
          <mxGeometry x="979" y="1991" width="56" height="36" as="geometry" />
        </mxCell>
        <mxCell id="qbABz30h0iUB20YgcGLr-147" value="" style="group" vertex="1" connectable="0" parent="qbABz30h0iUB20YgcGLr-146">
          <mxGeometry width="40" height="25.5" as="geometry" />
        </mxCell>
        <mxCell id="qbABz30h0iUB20YgcGLr-148" value="" style="endArrow=none;html=1;rounded=0;" edge="1" parent="qbABz30h0iUB20YgcGLr-147">
          <mxGeometry width="50" height="50" relative="1" as="geometry">
            <mxPoint x="21" y="21" as="sourcePoint" />
            <mxPoint x="31" y="11" as="targetPoint" />
          </mxGeometry>
        </mxCell>
        <mxCell id="qbABz30h0iUB20YgcGLr-149" value="&lt;font style=&quot;font-size: 8px;&quot;&gt;8&lt;/font&gt;" style="text;html=1;align=center;verticalAlign=middle;resizable=0;points=[];autosize=1;strokeColor=none;fillColor=none;" vertex="1" parent="qbABz30h0iUB20YgcGLr-147">
          <mxGeometry x="10" y="-6.5" width="30" height="30" as="geometry" />
        </mxCell>
        <mxCell id="qbABz30h0iUB20YgcGLr-150" value="" style="group" vertex="1" connectable="0" parent="1">
          <mxGeometry x="1067" y="1964.5" width="56" height="36" as="geometry" />
        </mxCell>
        <mxCell id="qbABz30h0iUB20YgcGLr-151" value="" style="group" vertex="1" connectable="0" parent="qbABz30h0iUB20YgcGLr-150">
          <mxGeometry width="40" height="25.5" as="geometry" />
        </mxCell>
        <mxCell id="qbABz30h0iUB20YgcGLr-152" value="" style="endArrow=none;html=1;rounded=0;" edge="1" parent="qbABz30h0iUB20YgcGLr-151">
          <mxGeometry width="50" height="50" relative="1" as="geometry">
            <mxPoint x="21" y="21" as="sourcePoint" />
            <mxPoint x="31" y="11" as="targetPoint" />
          </mxGeometry>
        </mxCell>
        <mxCell id="qbABz30h0iUB20YgcGLr-153" value="&lt;font style=&quot;font-size: 8px;&quot;&gt;8&lt;/font&gt;" style="text;html=1;align=center;verticalAlign=middle;resizable=0;points=[];autosize=1;strokeColor=none;fillColor=none;" vertex="1" parent="qbABz30h0iUB20YgcGLr-151">
          <mxGeometry x="10" y="-6.5" width="30" height="30" as="geometry" />
        </mxCell>
        <mxCell id="qbABz30h0iUB20YgcGLr-154" value="" style="group" vertex="1" connectable="0" parent="1">
          <mxGeometry x="1214" y="1964.5" width="56" height="36" as="geometry" />
        </mxCell>
        <mxCell id="qbABz30h0iUB20YgcGLr-155" value="" style="group" vertex="1" connectable="0" parent="qbABz30h0iUB20YgcGLr-154">
          <mxGeometry width="40" height="25.5" as="geometry" />
        </mxCell>
        <mxCell id="qbABz30h0iUB20YgcGLr-156" value="" style="endArrow=none;html=1;rounded=0;" edge="1" parent="qbABz30h0iUB20YgcGLr-155">
          <mxGeometry width="50" height="50" relative="1" as="geometry">
            <mxPoint x="21" y="21" as="sourcePoint" />
            <mxPoint x="31" y="11" as="targetPoint" />
          </mxGeometry>
        </mxCell>
        <mxCell id="qbABz30h0iUB20YgcGLr-157" value="&lt;font style=&quot;font-size: 8px;&quot;&gt;8&lt;/font&gt;" style="text;html=1;align=center;verticalAlign=middle;resizable=0;points=[];autosize=1;strokeColor=none;fillColor=none;" vertex="1" parent="qbABz30h0iUB20YgcGLr-155">
          <mxGeometry x="10" y="-6.5" width="30" height="30" as="geometry" />
        </mxCell>
        <mxCell id="qbABz30h0iUB20YgcGLr-158" value="" style="group" vertex="1" connectable="0" parent="1">
          <mxGeometry x="1184" y="1964.5" width="56" height="36" as="geometry" />
        </mxCell>
        <mxCell id="qbABz30h0iUB20YgcGLr-159" value="" style="group" vertex="1" connectable="0" parent="qbABz30h0iUB20YgcGLr-158">
          <mxGeometry width="40" height="25.5" as="geometry" />
        </mxCell>
        <mxCell id="qbABz30h0iUB20YgcGLr-160" value="" style="endArrow=none;html=1;rounded=0;" edge="1" parent="qbABz30h0iUB20YgcGLr-159">
          <mxGeometry width="50" height="50" relative="1" as="geometry">
            <mxPoint x="21" y="21" as="sourcePoint" />
            <mxPoint x="31" y="11" as="targetPoint" />
          </mxGeometry>
        </mxCell>
        <mxCell id="qbABz30h0iUB20YgcGLr-161" value="&lt;font style=&quot;font-size: 8px;&quot;&gt;8&lt;/font&gt;" style="text;html=1;align=center;verticalAlign=middle;resizable=0;points=[];autosize=1;strokeColor=none;fillColor=none;" vertex="1" parent="qbABz30h0iUB20YgcGLr-159">
          <mxGeometry x="10" y="-6.5" width="30" height="30" as="geometry" />
        </mxCell>
        <mxCell id="qbABz30h0iUB20YgcGLr-162" value="" style="ellipse;whiteSpace=wrap;html=1;aspect=fixed;fillColor=#000000;" vertex="1" parent="1">
          <mxGeometry x="1225" y="1979" width="4" height="4" as="geometry" />
        </mxCell>
        <mxCell id="qbABz30h0iUB20YgcGLr-163" value="" style="ellipse;whiteSpace=wrap;html=1;aspect=fixed;fillColor=#000000;" vertex="1" parent="1">
          <mxGeometry x="672" y="1795" width="4" height="4" as="geometry" />
        </mxCell>
        <mxCell id="qbABz30h0iUB20YgcGLr-164" value="" style="ellipse;whiteSpace=wrap;html=1;aspect=fixed;fillColor=#000000;" vertex="1" parent="1">
          <mxGeometry x="672" y="1847" width="4" height="4" as="geometry" />
        </mxCell>
        <mxCell id="qbABz30h0iUB20YgcGLr-165" value="" style="ellipse;whiteSpace=wrap;html=1;aspect=fixed;fillColor=#000000;" vertex="1" parent="1">
          <mxGeometry x="672" y="2047" width="4" height="4" as="geometry" />
        </mxCell>
      </root>
    </mxGraphModel>
  </diagram>
</mxfile>
